<?xml version="1.0" encoding="utf-8"?>
<!-- Generator: Adobe Illustrator 19.0.0, SVG Export Plug-In . SVG Version: 6.00 Build 0)  -->
<svg version="1.1" id="Layer_1" xmlns="http://www.w3.org/2000/svg" xmlns:xlink="http://www.w3.org/1999/xlink" x="0px" y="0px"
	 viewBox="0 0 150 150" style="enable-background:new 0 0 150 150;" xml:space="preserve">
<style type="text/css">
	.st0{fill:#665009;}
	.st1{fill:#9CDE00;}
	.st2{fill:#E63A00;}
	.st3{fill:#FFFFFF;}
	.st4{fill:#DBCF21;}
	.st5{fill:#A39A19;}
	.st6{fill:#FFE433;}
	.st7{fill:#474747;}
</style>
<g id="XMLID_24_">
	<path id="XMLID_22_" class="st0" d="M101.7,50c0,0,1.3-13.9,19.6-20.6c0,0,3.3-4.3-5-11.6c0,0-15.3,9.3-16.9,32.2H101.7z"/>
	<path id="XMLID_21_" class="st1" d="M102.1,36.7c0,0,1.7-27.6-31.4-24.8C70.8,11.9,74.4,44.6,102.1,36.7z"/>
	<path id="XMLID_20_" class="st2" d="M64.9,50.3c16-11.5,34.5-2.2,34.5-2.2s18.5-9.2,34.5,2.2c16,11.5,13.7,33.3,6.7,49
		c-7,15.7-20.4,26.6-26.7,26.6c-6.9,0-8.1-4.7-14.5-4.7c-6.4,0-7.7,4.7-14.5,4.7c-6.3,0-19.6-10.9-26.7-26.6
		C51.2,83.6,48.9,61.8,64.9,50.3z"/>
	<path id="XMLID_19_" class="st3" d="M120.4,51c0,0,34.4,12.3,0,55.5C120.4,106.5,140.3,75.3,120.4,51z"/>
	<g id="XMLID_25_">
		<rect id="XMLID_18_" x="5.7" y="96" class="st4" width="40.6" height="34.5"/>
		<ellipse id="XMLID_17_" class="st5" cx="26" cy="96" rx="20.3" ry="3.8"/>
		<path id="XMLID_16_" class="st6" d="M5.7,133.2c0,0,12.2,8,45,1.3c33.7-6.9,49.4-1.3,49.4-1.3V100c-15.2-10.9-77.2,6.5-94.4-3.8
			V133.2z"/>
		<g id="XMLID_26_">
			<path id="XMLID_15_" class="st7" d="M39.3,106.4c0.4,0,0.7-0.3,0.7-0.7V99c-0.5,0-1,0.1-1.4,0.1v6.6
				C38.6,106.1,38.9,106.4,39.3,106.4z"/>
			<path id="XMLID_14_" class="st7" d="M44.8,98.6v11.2c0,0.6,0.5,1.1,1.1,1.1c0.6,0,1.1-0.5,1.1-1.1V98.4
				C46.3,98.5,45.6,98.6,44.8,98.6z"/>
			<path id="XMLID_13_" class="st7" d="M27.2,106.4c0.4,0,0.7-0.3,0.7-0.7v-6.1c-0.5,0-1,0-1.4,0v6.1
				C26.5,106.1,26.8,106.4,27.2,106.4z"/>
			<path id="XMLID_12_" class="st7" d="M33.1,106.4c0.4,0,0.7-0.3,0.7-0.7v-6.4c-0.5,0-1,0.1-1.4,0.1v6.3
				C32.4,106.1,32.7,106.4,33.1,106.4z"/>
			<path id="XMLID_11_" class="st7" d="M83.3,105c0.4,0,0.7-0.3,0.7-0.7v-8c-0.5,0-1,0-1.4,0v8C82.6,104.7,82.9,105,83.3,105z"/>
			<path id="XMLID_10_" class="st7" d="M94,97.5v10.4c0,0.6,0.5,1.1,1.1,1.1c0.6,0,1.1-0.5,1.1-1.1v-9.7
				C95.5,97.9,94.8,97.7,94,97.5z"/>
			<path id="XMLID_9_" class="st7" d="M89.5,105c0.4,0,0.7-0.3,0.7-0.7v-7.5c-0.5-0.1-1-0.1-1.4-0.2v7.6
				C88.8,104.7,89.1,105,89.5,105z"/>
			<path id="XMLID_8_" class="st7" d="M15.7,106.4c0.4,0,0.7-0.3,0.7-0.7v-6.5c-0.5-0.1-1-0.1-1.4-0.2v6.7
				C15,106.1,15.3,106.4,15.7,106.4z"/>
			<path id="XMLID_7_" class="st7" d="M76.7,96.3v8c0,0.4,0.3,0.7,0.7,0.7c0.4,0,0.7-0.3,0.7-0.7v-8C77.6,96.3,77.1,96.3,76.7,96.3z
				"/>
			<path id="XMLID_6_" class="st7" d="M9.8,106.4c0.4,0,0.7-0.3,0.7-0.7v-7.6c-0.5-0.1-1-0.3-1.4-0.4v8
				C9.1,106.1,9.4,106.4,9.8,106.4z"/>
			<path id="XMLID_5_" class="st7" d="M52.5,106.4c0.4,0,0.7-0.3,0.7-0.7v-7.8c-0.5,0-1,0.1-1.4,0.1v7.7
				C51.8,106.1,52.1,106.4,52.5,106.4z"/>
			<path id="XMLID_4_" class="st7" d="M19.5,99.5v10.4c0,0.6,0.5,1.1,1.1,1.1c0.6,0,1.1-0.5,1.1-1.1V99.5
				C20.9,99.5,20.2,99.5,19.5,99.5z"/>
			<path id="XMLID_3_" class="st7" d="M70.8,109.5c0.6,0,1.1-0.5,1.1-1.1V96.5c-0.7,0-1.4,0.1-2.2,0.1v11.8
				C69.7,109,70.2,109.5,70.8,109.5z"/>
			<path id="XMLID_2_" class="st7" d="M58.4,106.4c0.4,0,0.7-0.3,0.7-0.7v-8.3c-0.5,0-1,0.1-1.4,0.1v8.2
				C57.7,106.1,58,106.4,58.4,106.4z"/>
			<path id="XMLID_1_" class="st7" d="M64.7,106.4c0.4,0,0.7-0.3,0.7-0.7v-8.8c-0.5,0-1,0.1-1.4,0.1v8.7
				C64,106.1,64.3,106.4,64.7,106.4z"/>
		</g>
	</g>
</g>
</svg>
