<?xml version="1.0" encoding="utf-8"?>
<!-- Generator: Adobe Illustrator 19.0.0, SVG Export Plug-In . SVG Version: 6.00 Build 0)  -->
<svg version="1.1" id="Layer_1" xmlns="http://www.w3.org/2000/svg" xmlns:xlink="http://www.w3.org/1999/xlink" x="0px" y="0px"
	 viewBox="0 0 150 150" style="enable-background:new 0 0 150 150;" xml:space="preserve">
<style type="text/css">
	.st0{fill:#C0392B;}
	.st1{fill:#212F3C;}
	.st2{fill:#E4F1FE;}
	.st3{fill:#2C3E50;}
</style>
<g>
	<circle id="XMLID_4_" class="st0" cx="75" cy="74.9" r="61.8"/>
	<circle id="XMLID_3_" class="st1" cx="75" cy="74.9" r="53.2"/>
	<circle id="XMLID_2_" class="st2" cx="75" cy="74.9" r="48.4"/>
	<path id="XMLID_1_" class="st3" d="M105.4,73.6H84.7c-0.6-4.8-4.7-8.5-9.7-8.5c-0.9,0-1.7,0.1-2.5,0.3L61,41.2
		c-0.9-1.9-2.8-2.9-4.3-2.2c-1.5,0.7-1.9,2.8-1,4.7l11.8,24.9c-1.4,1.7-2.3,3.9-2.3,6.3c0,5.4,4.4,9.8,9.8,9.8c4,0,7.4-2.4,8.9-5.7
		h21.5c2.1,0,3.8-1.2,3.8-2.7C109.2,74.8,107.5,73.6,105.4,73.6z"/>
</g>
</svg>
