<?xml version="1.0" encoding="utf-8"?>
<!-- Generator: Adobe Illustrator 19.0.0, SVG Export Plug-In . SVG Version: 6.00 Build 0)  -->
<svg version="1.1" id="Layer_1" xmlns="http://www.w3.org/2000/svg" xmlns:xlink="http://www.w3.org/1999/xlink" x="0px" y="0px"
	 viewBox="0 0 1400 511.5" style="enable-background:new 0 0 1400 511.5;" xml:space="preserve">
<style type="text/css">
	.st0{fill:#BBE2D7;}
	.st1{display:none;opacity:0.37;fill:#B5E0D6;}
	.st2{fill:#B5E0D6;}
	.st3{display:none;}
	.st4{display:inline;fill:#95C9BA;}
	.st5{display:inline;fill:#9ED7C9;}
	.st6{display:inline;fill:#AFDDD0;}
	.st7{fill:#8DC63F;}
	.st8{fill:#3A4B45;}
	.st9{fill:#BCBEC0;}
	.st10{fill:#888A8C;}
	.st11{fill:#E6E7E8;}
	.st12{fill:#D1D3D4;}
	.st13{fill:#A7A9AC;}
	.st14{fill:#AFAEAF;}
	.st15{display:inline;fill:#3A2E30;}
	.st16{display:inline;fill:#4A3B3C;}
	.st17{display:inline;fill:#F9ED32;}
	.st18{display:inline;fill:#3F3335;}
	.st19{display:inline;fill:#1A1516;}
	.st20{display:inline;fill:#F2EAB5;}
	.st21{display:inline;}
	.st22{fill:#1A1516;}
	.st23{display:inline;fill:#DCCB26;}
	.st24{display:inline;fill:#302628;}
	.st25{display:inline;fill:#423436;}
	.st26{display:inline;fill:#C9B52E;}
	.st27{fill:url(#XMLID_321_);}
	.st28{fill:#73AF50;}
	.st29{fill:#772434;}
	.st30{fill:#F1EAC7;}
	.st31{fill:#972E3F;}
	.st32{fill:#5B1B2B;}
	.st33{fill:#AF9F8C;}
	.st34{fill:#82293B;}
	.st35{fill:#9B8C7C;}
	.st36{fill:#E6A231;}
	.st37{display:inline;opacity:0.6;clip-path:url(#XMLID_322_);}
	.st38{opacity:0.5;fill:#C9A08E;}
	.st39{opacity:0.6;fill:#C9A08E;}
	.st40{fill:#F2E74F;}
	.st41{display:inline;fill:none;}
	.st42{display:inline;opacity:0.3;fill:url(#XMLID_323_);}
</style>
<g id="XMLID_140_">
	<rect id="XMLID_244_" x="0" y="-376.1" class="st0" width="1400" height="843.1"/>
	<path id="XMLID_14535_" class="st1" d="M134.3-213.3h-30.7c-5,0-9.1,4.1-9.1,9.1c0,5,4.1,9.1,9.1,9.1h55.1c5,0,9.1,4.1,9.1,9.1
		c0,5-4.1,9.1-9.1,9.1h-31c-5,0-9.1,4.1-9.1,9.1c0,5,4.1,9.1,9.1,9.1h151.4c5,0,9.1-4.1,9.1-9.1c0-5-4.1-9.1-9.1-9.1h-79.5
		c-5,0-9.1-4.1-9.1-9.1c0-5,4.1-9.1,9.1-9.1h27c5,0,9.1-4.1,9.1-9.1c0-5-4.1-9.1-9.1-9.1h-44.4c-5,0-9.1-4.1-9.1-9.1
		c0-5,4.1-9.1,9.1-9.1h24.9c5,0,9.1-4.1,9.1-9.1c0-5-4.1-9.1-9.1-9.1H111c-5,0-9.1,4.1-9.1,9.1c0,5,4.1,9.1,9.1,9.1h23.3
		c5,0,9.1,4.1,9.1,9.1C143.4-217.3,139.3-213.3,134.3-213.3z"/>
	<path id="XMLID_320_" class="st1" d="M979.6-85.4h30.7c5,0,9.1-4.1,9.1-9.1c0-5-4.1-9.1-9.1-9.1h-55.1c-5,0-9.1-4.1-9.1-9.1
		c0-5,4.1-9.1,9.1-9.1h31c5,0,9.1-4.1,9.1-9.1c0-5-4.1-9.1-9.1-9.1H834.7c-5,0-9.1,4.1-9.1,9.1c0,5,4.1,9.1,9.1,9.1h79.5
		c5,0,9.1,4.1,9.1,9.1c0,5-4.1,9.1-9.1,9.1h-27c-5,0-9.1,4.1-9.1,9.1c0,5,4.1,9.1,9.1,9.1h44.4c5,0,9.1,4.1,9.1,9.1
		c0,5-4.1,9.1-9.1,9.1h-24.9c-5,0-9.1,4.1-9.1,9.1c0,5,4.1,9.1,9.1,9.1h96.2c5,0,9.1-4.1,9.1-9.1c0-5-4.1-9.1-9.1-9.1h-23.3
		c-5,0-9.1-4.1-9.1-9.1C970.5-81.4,974.6-85.4,979.6-85.4z"/>
	<path id="XMLID_14534_" class="st1" d="M621.2-0.1h30.7c5,0,9.1-4.1,9.1-9.1s-4.1-9.1-9.1-9.1h-55.1c-5,0-9.1-4.1-9.1-9.1
		c0-5,4.1-9.1,9.1-9.1h31c5,0,9.1-4.1,9.1-9.1c0-5-4.1-9.1-9.1-9.1H476.3c-5,0-9.1,4.1-9.1,9.1c0,5,4.1,9.1,9.1,9.1h79.5
		c5,0,9.1,4.1,9.1,9.1c0,5-4.1,9.1-9.1,9.1h-27c-5,0-9.1,4.1-9.1,9.1s4.1,9.1,9.1,9.1h44.4c5,0,9.1,4.1,9.1,9.1c0,5-4.1,9.1-9.1,9.1
		h-24.9c-5,0-9.1,4.1-9.1,9.1c0,5,4.1,9.1,9.1,9.1h96.2c5,0,9.1-4.1,9.1-9.1c0-5-4.1-9.1-9.1-9.1h-23.3c-5,0-9.1-4.1-9.1-9.1
		C612.1,4,616.2-0.1,621.2-0.1z"/>
	<path id="XMLID_14531_" class="st1" d="M1199.2,31.3h58.7c10.7,0,10.7-20.2,0-20.2h-20c-5.6,0-10.1-4.5-10.1-10.1
		c0-5.6,4.5-10.1,10.1-10.1h75.8c5.6,0,10.1,4.5,10.1,10.1c0,5.6-4.5,10.1-10.1,10.1H1285c-10.7,0-10.7,20.2,0,20.2h7.2
		c5.6,0,10.1,4.5,10.1,10.1s-4.5,10.1-10.1,10.1H1251c-10.7,0-10.7,20.2,0,20.2h1.7c5.6,0,10.1,4.5,10.1,10.1l0,0
		c0,5.6-4.5,10.1-10.1,10.1h-30.6c-5.6,0-10.1-4.5-10.1-10.1l0,0c0-5.6,4.5-10.1,10.1-10.1h1.7c10.7,0,10.7-20.2,0-20.2h-24.7
		c-5.6,0-10.1-4.5-10.1-10.1S1193.6,31.3,1199.2,31.3z"/>
	<rect id="XMLID_233_" x="0" y="-376.1" class="st2" width="1400" height="843.1"/>
	<g id="XMLID_263_" class="st3">
		<path id="XMLID_248_" class="st4" d="M1385.8,243.1c-3.7,3.1-17.2,24.5-17.7,28.2c-0.5,3.7-5.7,29.8-8.4,31.3
			s-39.7,28.7-41.2,30.3c-1.6,1.6-14.1,4.7-15.1,3.1c-0.9-1.3-3.6-8.5-5.7-11.1v-1c0,0-0.4,0.1-1.1,0.1c0,0,0,0-0.1,0
			c-0.2,0-0.7,0-1.3,0.1c-5.8,0.4-20.9,0.4-30.5-9.1c-12-12-30.8-27.1-31.3-33.9c-0.5-6.8-4.7-27.1-13.6-37.1
			c-8.9-9.9-28.7-13.6-31.3-15.1c-2.6-1.6-26.1-33.9-26.6-38.6c-0.5-4.7,0.5-39.2-3.1-41.8c-3.7-2.6-26.6-17.7-26.6-23.5
			c0-5.7,0-24-2.1-27.7c-2.1-3.7-15.1-23.5-18.3-27.7c-3.1-4.2-14.6-2.6-17.7,0c-3.1,2.6-35.5,27.1-38.6,36.5
			c-3.1,9.4-6.8,11.5-7.3,16.7c-0.5,5.2-12.5,26.6-16.2,29.8c-3.7,3.1-17.2,24.5-17.7,28.2c-0.5,3.7-5.7,29.8-8.4,31.3
			c-2.6,1.6-39.7,28.7-41.2,30.3c-1.6,1.6-14.1,4.7-15.1,3.1c-1-1.6-4.7-11.5-6.8-12c-2.1-0.5-36.5,10.4-40.7,19.8
			c-1.4,3.1-3.3,6-5.4,8.6c-4.9-7-9.5-14.1-9.7-16c-0.4-3.9,0.4-32.5-2.6-34.6c-3-2.2-22.1-14.7-22.1-19.5
			c0-4.8-14.3-42.4-16.9-45.9c-2.6-3.5-12.1-2.2-14.7,0c-2.6,2.2-29.4,22.5-32,30.3c-2.6,7.8-5.6,9.5-6.1,13.9
			c-0.4,4.3-10.4,22.1-13.4,24.7c-3,2.6-14.3,20.3-14.7,23.4c-0.4,3-4.8,24.7-6.9,26c-2.2,1.3-32.9,23.8-34.2,25.1
			c-1.3,1.3-11.7,3.9-12.6,2.6c-0.9-1.3-3.9-9.5-5.6-10c-1.2-0.3-14.3,3.7-24,8.7c-6.8-8.2-23.6-31.9-24.1-35.9
			c-0.5-4.7,0.5-39.2-3.1-41.8c-3.7-2.6-26.6-17.7-26.6-23.5c0-5.7,0-24-2.1-27.7c-2.1-3.7-15.1-23.5-18.3-27.7
			c-3.1-4.2-14.6-2.6-17.7,0c-3.1,2.6-35.5,27.1-38.6,36.5c-3.1,9.4-6.8,11.5-7.3,16.7c-0.5,5.2-12.5,26.6-16.2,29.8
			c-3.7,3.1-17.2,24.5-17.7,28.2c-0.5,3.7-5.7,29.8-8.4,31.3c-2.6,1.6-39.7,28.7-41.2,30.3s-14.1,4.7-15.1,3.1
			c-0.9-1.3-3.6-8.5-5.7-11.1v-1c0,0-0.4,0.1-1.1,0.1c0,0,0,0-0.1,0c-0.2,0-0.7,0-1.3,0.1c-5.8,0.4-20.9,0.4-30.5-9.1
			c-12-12-30.8-27.1-31.3-33.9c-0.5-6.8-4.7-27.1-13.6-37.1c-8.9-9.9-28.7-13.6-31.3-15.1c-2.6-1.6-26.1-33.9-26.6-38.6
			c-0.5-4.7,0.5-39.2-3.1-41.8c-3.7-2.6-26.6-17.7-26.6-23.5c0-5.7,0-24-2.1-27.7c-2.1-3.7-15.1-23.5-18.3-27.7
			c-3.1-4.2-14.6-2.6-17.7,0c-3.1,2.6-35.5,27.1-38.6,36.5c-3.1,9.4-6.8,11.5-7.3,16.7c-0.5,5.2-12.5,26.6-16.2,29.8
			c-3.7,3.1-17.2,24.5-17.7,28.2c-0.5,3.7-5.7,29.8-8.4,31.3c-2.6,1.6-39.7,28.7-41.2,30.3c-1.6,1.6-14.1,4.7-15.1,3.1
			c-1-1.6-4.7-11.5-6.8-12c-2.1-0.5-36.5,10.4-40.7,19.8c-4.2,9.4-13.6,17.7-18.8,18.8c-3.4,0.7-15.3,2-24.3,2.9v267.9h594.6h198.1
			h16.9h243.6h31.2h278.1h37.6V219.1C1396.3,227.4,1388.6,240.7,1385.8,243.1z"/>
		<path id="XMLID_245_" class="st5" d="M481.9,403.6c-1.7-1-17.2-22.3-17.5-25.4c-0.3-3.1,0.3-25.7-2.1-27.5
			c-2.4-1.7-17.5-11.7-17.5-15.4c0-3.8,0-15.8-1.4-18.2c-1.4-2.4-10-15.4-12-18.2c-2.1-2.7-9.6-1.7-11.7,0
			c-2.1,1.7-23.3,17.8-25.4,24c-2.1,6.2-4.5,7.5-4.8,11c-0.3,3.4-8.2,17.5-10.6,19.6c-2.4,2.1-11.3,16.1-11.7,18.5
			c-0.3,2.4-3.8,19.6-5.5,20.6c-1.7,1-26.1,18.9-27.1,19.9c-1,1-9.3,3.1-10,2.1c-0.6-0.9-2.4-5.6-3.7-7.3v-0.7c0,0-0.3,0-0.7,0.1
			c0,0,0,0,0,0c-0.1,0-0.4,0-0.8,0.1c-2.1,0.2-6.1,0.2-10.4-0.8v-51.6c-2.9-0.9-5.6-1.3-6.2-1.6c-1.1-0.5-10.8-10.5-11-11.9
			c-0.2-1.5,0.2-12.1-1.3-12.9c-1.5-0.8-11-5.5-11-7.3c0-1.8,0-7.4-0.9-8.5c-0.9-1.1-6.3-7.3-7.5-8.5c-1.3-1.3-6-0.8-7.3,0
			c-1.3,0.8-14.7,8.4-16,11.3c-1.3,2.9-2.8,3.5-3,5.2c-0.2,1.6-5.2,8.2-6.7,9.2c0,0-0.1,0.1-0.1,0.1c-3.3-4.8-6.1-9.3-6.3-10.6
			c-0.3-3.1,0.3-25.7-2.1-27.5c-2.4-1.7-17.5-11.7-17.5-15.4c0-3.8,0-15.8-1.4-18.2c-1.4-2.4-10-15.4-12-18.2
			c-2.1-2.7-9.6-1.7-11.7,0c-2.1,1.7-23.3,17.8-25.4,24c-2.1,6.2-4.5,7.5-4.8,11c-0.3,3.4-8.2,17.5-10.6,19.6
			c-0.8,0.7-2.3,2.6-3.9,5c-3.2-1.7-9.1-4.9-9.1-6.3c0-1.8,0-7.4-0.9-8.5c-0.9-1.1-6.3-7.3-7.5-8.5c-1.3-1.3-6-0.8-7.3,0
			c-1.3,0.8-14.7,8.4-16,11.3c-1.3,2.9-2.8,3.5-3,5.2c-0.2,1.6-5.2,8.2-6.7,9.2c-1.5,1-7.1,7.6-7.3,8.7c-0.2,1.1-2.4,9.2-3.5,9.7
			c-1.1,0.5-16.4,8.9-17,9.3c-0.6,0.5-5.8,1.5-6.3,1c-0.4-0.5-1.9-3.5-2.8-3.7c-0.9-0.2-15.1,3.2-16.8,6.1c-1.7,2.9-5.6,5.5-7.8,5.8
			c-2.2,0.3-12.5,1.1-14.2,1.1c-1.7,0-15.3,1.1-16,1.6c-0.3,0.3-0.3,33.7-0.2,64.7C0,433.5,0,478.4,0.1,520.5h491.6V407
			C487.1,405.1,482.8,404.2,481.9,403.6z"/>
		<path id="XMLID_250_" class="st5" d="M1388.3,273.6c-1.7-1-5.1-18.2-5.5-20.6c-0.3-2.4-9.3-16.5-11.7-18.5
			c-2.4-2.1-10.3-16.1-10.6-19.6c-0.3-3.4-2.7-4.8-4.8-11c-2.1-6.2-23.3-22.3-25.4-24c-2.1-1.7-9.6-2.7-11.7,0
			c-2.1,2.7-10.6,15.8-12,18.2c-1.4,2.4-1.4,14.4-1.4,18.2c0,3.8-15.1,13.7-17.5,15.4s-1.7,24.4-2.1,27.5
			c-0.3,3.1-15.8,24.4-17.5,25.4c-1.7,1-14.8,3.4-20.6,10c-5.8,6.5-8.6,19.9-8.9,24.4c-0.3,4.5-12.7,14.4-20.6,22.3
			c-6.3,6.3-16.2,6.3-20.1,6c-0.4-0.1-0.7-0.1-0.8-0.1c0,0,0,0,0,0c-0.4,0-0.7-0.1-0.7-0.1v0.7c-1.4,1.7-3.2,6.4-3.7,7.3
			c-0.7,1-8.9-1-10-2.1c-1-1-25.4-18.9-27.1-19.9c-1.7-1-5.1-18.2-5.5-20.6c-0.3-2.4-9.3-16.5-11.7-18.5
			c-2.4-2.1-10.3-16.1-10.6-19.6c-0.3-3.4-2.7-4.8-4.8-11c-2.1-6.2-23.3-22.3-25.4-24c-2.1-1.7-9.6-2.7-11.7,0
			c-2.1,2.7-10.6,15.8-12,18.2c-1.4,2.4-1.4,14.4-1.4,18.2c0,3.8-15.1,13.7-17.5,15.4c-2.4,1.7-1.7,24.4-2.1,27.5
			c-0.1,0.8-1.1,2.6-2.6,5.1c-2.5-1.8-4.4-3.2-4.8-3.4c-1.4-0.8-4.2-14.8-4.5-16.7c-0.3-1.9-7.5-13.4-9.5-15
			c-1.9-1.7-8.4-13.1-8.6-15.9c-0.3-2.8-2.2-3.9-3.9-8.9c-1.7-5-18.9-18.1-20.6-19.5c-1.7-1.4-7.8-2.2-9.5,0
			c-1.7,2.2-8.6,12.8-9.7,14.8c-1.1,1.9-1.1,11.7-1.1,14.8c0,3.1-12.2,11.1-14.2,12.5c-1.9,1.4-1.4,19.8-1.7,22.3
			c-0.3,2.5-12.8,19.8-14.2,20.6c-1.4,0.8-12,2.8-16.7,8.1c-4.7,5.3-7,16.1-7.2,19.8c-0.3,3.6-10.3,11.7-16.7,18.1
			c-5.1,5.1-13.2,5.1-16.3,4.9c-0.3-0.1-0.6-0.1-0.7-0.1c0,0,0,0,0,0c-0.4,0-0.6-0.1-0.6-0.1v0.5c-1.1,1.4-2.6,5.2-3,5.9
			c-0.6,0.8-7.2-0.8-8.1-1.7c-0.8-0.8-20.6-15.3-22-16.1c-1.4-0.8-4.2-14.8-4.5-16.7c-0.3-1.9-7.5-13.4-9.5-15
			c-1.9-1.7-8.4-13.1-8.6-15.9c-0.3-2.8-2.2-3.9-3.9-8.9c-1.7-5-18.9-18.1-20.6-19.5c-1.7-1.4-7.8-2.2-9.5,0
			c-1.7,2.2-8.6,12.8-9.7,14.8c-1.1,1.9-1.1,11.7-1.1,14.8c0,3.1-12.2,11.1-14.2,12.5c-1.9,1.4-1.4,19.8-1.7,22.3
			c-0.3,2.5-12.8,19.8-14.2,20.6c-0.8,0.5-4.4,1.3-8.2,2.8v-7.4c-3.5-2.6-6.8-4.9-7.2-5.2c-1.1-0.6-3.2-11.3-3.4-12.8
			c-0.2-1.5-5.7-10.2-7.2-11.5c-1.5-1.3-6.4-10-6.6-12.1c-0.2-2.1-1.7-3-3-6.8c-1.3-3.8-14.5-13.8-15.7-14.9c-1.3-1.1-6-1.7-7.2,0
			c-1.3,1.7-6.6,9.8-7.4,11.3c-0.9,1.5-0.9,8.9-0.9,11.3c0,2.3-9.4,8.5-10.8,9.6c-1.5,1.1-1.1,15.1-1.3,17
			c-0.2,1.9-9.8,15.1-10.8,15.7c-1.1,0.6-9.1,2.1-12.8,6.2c-3.6,4-5.3,12.3-5.5,15.1c-0.2,2.8-7.9,8.9-12.8,13.8
			c-3.9,3.9-10.1,3.9-12.4,3.7c-0.2,0-0.4-0.1-0.5-0.1c0,0,0,0,0,0c-0.3,0-0.4-0.1-0.4-0.1v0.4c-0.8,1.1-2,4-2.3,4.5
			c-0.4,0.6-5.5-0.6-6.2-1.3c-0.6-0.6-15.7-11.7-16.8-12.3c-1.1-0.6-3.2-11.3-3.4-12.8c-0.2-1.5-5.7-10.2-7.2-11.5
			c-1.5-1.3-6.4-10-6.6-12.1c-0.2-2.1-1.7-3-3-6.8c-1.3-3.8-14.5-13.8-15.7-14.9c-1.3-1.1-6-1.7-7.2,0c-1.3,1.7-6.6,9.8-7.4,11.3
			c-0.9,1.5-0.9,8.9-0.9,11.3c0,2.3-9.4,8.5-10.8,9.6c-1.5,1.1-1.1,15.1-1.3,17c-0.2,1.9-9.8,15.1-10.8,15.7
			c-1.1,0.6-9.1,2.1-12.8,6.2c-3.6,4-5.3,12.3-5.5,15.1c-0.2,2.8-7.9,8.9-12.8,13.8c-4.9,4.9-13.4,3.6-13.4,3.6v70.7h220.2h50h212.5
			h91.3H1400V282C1394.3,277.8,1389.1,274,1388.3,273.6z"/>
		<path id="XMLID_243_" class="st6" d="M382.9,520.5V473c0,0-9.4,1.4-14.9-4c-5.4-5.4-13.9-12.3-14.2-15.3
			c-0.2-3.1-2.1-12.3-6.1-16.8c-4-4.5-13-6.1-14.2-6.8c-1.2-0.7-11.8-15.3-12-17.5c-0.2-2.1,0.2-17.7-1.4-18.9
			c-1.7-1.2-12-8-12-10.6s0-10.9-0.9-12.5c-0.9-1.7-6.8-10.6-8.3-12.5c-1.4-1.9-6.6-1.2-8,0c-1.4,1.2-16,12.3-17.5,16.5
			c-1.4,4.2-3.1,5.2-3.3,7.6c-0.2,2.4-5.7,12-7.3,13.4c-1.7,1.4-7.8,11.1-8,12.7c-0.2,1.7-2.6,13.4-3.8,14.2
			c-0.7,0.4-6.7,4.7-11.7,8.4c-2.4-2.6-11.3-15-11.5-17c-0.2-2.1,0.2-17.7-1.4-18.9s-12-8-12-10.6c0-2.6,0-10.9-0.9-12.5
			c-0.9-1.7-6.8-10.6-8.3-12.5c-1.4-1.9-6.6-1.2-8,0c-1.4,1.2-16,12.3-17.5,16.5c-1.4,4.2-3.1,5.2-3.3,7.6c-0.1,1-1.1,3.3-2.4,5.8
			c-0.1,0-0.2-0.1-0.3-0.1c-1.2-0.7-11.8-15.3-12-17.5c-0.2-2.1,0.2-17.7-1.4-18.9c-1.7-1.2-12-8-12-10.6s0-10.9-0.9-12.5
			c-0.9-1.7-6.8-10.6-8.3-12.5c-1.4-1.9-6.6-1.2-8,0c-1.4,1.2-16,12.3-17.5,16.5c-1.4,4.2-3.1,5.2-3.3,7.6c-0.2,2.4-5.7,12-7.3,13.4
			c-1.7,1.4-7.8,11.1-8,12.7c-0.2,1.7-2.6,13.4-3.8,14.2c-0.5,0.3-4.1,2.9-8,5.8v4.2c-1.6-0.5-2.8-0.8-3.1-1
			c-1.2-0.7-11.8-15.3-12-17.5c-0.2-2.1,0.2-17.7-1.4-18.9c-1.7-1.2-12-8-12-10.6c0-2.6,0-10.9-0.9-12.5c-0.9-1.7-6.8-10.6-8.3-12.5
			c-1.4-1.9-6.6-1.2-8,0c-1.4,1.2-16,12.3-17.5,16.5c-1.4,4.2-3.1,5.2-3.3,7.6c-0.2,2.4-5.7,12-7.3,13.4c-1.7,1.4-7.8,11.1-8,12.7
			c-0.1,0.6-0.5,2.8-1,5.2v146.5H382.9z"/>
		<path id="XMLID_246_" class="st6" d="M1391.8,358.6c-1.5-2-7.1-1.3-8.7,0c-1.5,1.3-17.3,13.2-18.8,17.8c-1.5,4.6-3.3,5.6-3.6,8.2
			c-0.3,2.5-6.1,13-7.9,14.5c-1.8,1.5-8.4,12-8.7,13.8c-0.3,1.8-2.8,14.5-4.1,15.3c-1.3,0.8-19.4,14-20.1,14.8
			c-0.8,0.8-6.9,2.3-7.4,1.5c-0.4-0.6-1.8-4.1-2.8-5.4v-0.5c0,0-0.2,0-0.5,0.1c0,0,0,0,0,0c-0.1,0-0.3,0-0.6,0.1
			c-2.8,0.2-10.2,0.2-14.9-4.4c-5.9-5.9-15-13.2-15.3-16.6c-0.3-3.3-2.3-13.2-6.6-18.1c-4.3-4.8-14-6.6-15.3-7.4
			c-1.3-0.8-12.7-16.6-13-18.8c-0.3-2.3,0.3-19.1-1.5-20.4c-1.8-1.3-13-8.7-13-11.5c0-2.8,0-11.7-1-13.5c-1-1.8-7.4-11.5-8.9-13.5
			c-1.5-2-7.1-1.3-8.7,0c-1.5,1.3-17.3,13.2-18.8,17.8c-1.5,4.6-3.3,5.6-3.6,8.2c-0.3,2.5-6.1,13-7.9,14.5c-1.8,1.5-8.4,12-8.7,13.8
			c-0.3,1.8-2.8,14.5-4.1,15.3c-0.5,0.3-3.1,2.2-6.3,4.5c0-2.9,0-11.6-1-13.4c-1-1.8-7.4-11.5-8.9-13.5c-1.5-2-7.1-1.3-8.7,0
			c-1.5,1.3-17.3,13.2-18.8,17.8c-1.5,4.6-3.3,5.6-3.6,8.2c-0.3,2.5-6.1,13-7.9,14.5c-1.8,1.5-8.4,12-8.7,13.8
			c-0.3,1.8-2.8,14.5-4.1,15.3c-1.3,0.8-19.4,14-20.1,14.8s-6.9,2.3-7.4,1.5c-0.4-0.6-1.8-4.1-2.8-5.4v-0.5c0,0-0.2,0-0.5,0.1
			c0,0,0,0,0,0c-0.1,0-0.3,0-0.6,0.1c-2.8,0.2-10.2,0.2-14.9-4.4c-5.9-5.9-15-13.2-15.3-16.6c-0.3-3.3-2.3-13.2-6.6-18.1
			c-4.3-4.8-14-6.6-15.3-7.4c-1.3-0.8-12.7-16.6-13-18.8c-0.3-2.3,0.3-19.1-1.5-20.4c-1.8-1.3-13-8.7-13-11.5c0-2.8,0-11.7-1-13.5
			c-1-1.8-7.4-11.5-8.9-13.5c-1.5-2-7.1-1.3-8.7,0c-1.5,1.3-17.3,13.2-18.8,17.8c-1.5,4.6-3.3,5.6-3.6,8.2c-0.3,2.5-6.1,13-7.9,14.5
			c-1.8,1.5-8.4,12-8.7,13.8c-0.3,1.8-2.8,14.5-4.1,15.3c-0.3,0.2-1.6,1.1-3.3,2.3v-18.5c-2-3.2-6.9-10.6-8.2-12.3
			c-1.5-2-7.1-1.3-8.7,0c-1.5,1.3-17.3,13.2-18.8,17.8c-1.5,4.6-3.3,5.6-3.6,8.2c-0.3,2.5-6.1,13-7.9,14.5c-1.8,1.5-8.4,12-8.7,13.8
			c-0.3,1.8-2.8,14.5-4.1,15.3c-1.3,0.8-19.4,14-20.1,14.8c-0.8,0.8-6.9,2.3-7.4,1.5c-0.4-0.6-1.8-4.1-2.8-5.4v-0.5
			c0,0-0.2,0-0.5,0.1c0,0,0,0,0,0c-0.1,0-0.3,0-0.6,0.1c-2.8,0.2-10.2,0.2-14.9-4.4c-5.9-5.9-15-13.2-15.3-16.6
			c-0.3-3.3-2.3-13.2-6.6-18.1c-4.3-4.8-14-6.6-15.3-7.4c-1.3-0.8-12.7-16.6-13-18.8c-0.3-2.3,0.3-19.1-1.5-20.4
			c-1.8-1.3-13-8.7-13-11.5c0-2.8,0-11.7-1-13.5c-1-1.8-7.4-11.5-8.9-13.5c-1.5-2-7.1-1.3-8.7,0c-1.5,1.3-17.3,13.2-18.8,17.8
			c-1.5,4.6-3.3,5.6-3.6,8.2c-0.3,2.5-6.1,13-7.9,14.5c-1.8,1.5-8.4,12-8.7,13.8c-0.3,1.8-2.8,14.5-4.1,15.3
			c-0.5,0.3-3.1,2.2-6.3,4.5c0-2.9,0-11.6-1-13.4c-1-1.8-7.4-11.5-8.9-13.5c-1.5-2-7.1-1.3-8.7,0c-1.5,1.3-17.3,13.2-18.8,17.8
			c-1.5,4.6-3.3,5.6-3.6,8.2c-0.3,2.5-6.1,13-7.9,14.5c-1.8,1.5-8.4,12-8.7,13.8c-0.3,1.8-2.8,14.5-4.1,15.3
			c-1.3,0.8-19.4,14-20.1,14.8c-0.8,0.8-6.9,2.3-7.4,1.5c-0.4-0.6-1.8-4.1-2.8-5.4v-0.5c0,0-0.2,0-0.5,0.1c0,0,0,0,0,0
			c-0.1,0-0.3,0-0.6,0.1c-2.8,0.2-10.2,0.2-14.9-4.4c-5.9-5.9-15-13.2-15.3-16.6c-0.3-3.3-2.3-13.2-6.6-18.1
			c-4.3-4.8-14-6.6-15.3-7.4c-1.3-0.8-12.7-16.6-13-18.8c-0.3-2.3,0.3-19.1-1.5-20.4c-1.8-1.3-13-8.7-13-11.5c0-2.8,0-11.7-1-13.5
			c-1-1.8-7.4-11.5-8.9-13.5c-1.5-2-7.1-1.3-8.7,0c-1.5,1.3-17.3,13.2-18.8,17.8c-1.5,4.6-3.3,5.6-3.6,8.2c-0.3,2.5-6.1,13-7.9,14.5
			c-1.8,1.5-8.4,12-8.7,13.8c-0.3,1.8-2.8,14.5-4.1,15.3c-0.6,0.3-4.5,3.2-8.7,6.2v127.4h476.5h5.4H1400V370.9
			C1398,367.7,1393.1,360.3,1391.8,358.6z"/>
	</g>
	<g id="XMLID_237_">
		<circle id="XMLID_239_" class="st7" cx="613.3" cy="385.4" r="39.1"/>
		<path id="XMLID_238_" class="st8" d="M618.8,467c-0.3-6-1-15.2-1.9-23.2c-0.1-1.4-0.2-2.8-0.2-4.2c-0.2-3-0.4-6.1-0.5-9.2
			c-0.1-3.1-0.2-6.2-0.4-9.2c-0.1-3-0.3-6-0.4-8.9c-0.1-2.9-0.3-5.7-0.4-8.3c-0.1-2.6-0.3-5.1-0.4-7.5c-0.1-2.3-0.3-4.4-0.4-6.3
			c-0.1-1.9-0.2-3.5-0.3-4.9c-0.2-2.7-1.1-2.7-1.3,0c-0.1,1.3-0.2,3-0.3,4.9c-0.1,1.9-0.2,4-0.4,6.3c-0.1,2.3-0.3,4.8-0.4,7.5
			c-0.2,2.6-0.3,5.4-0.4,8.3c-0.1,2.9-0.3,5.9-0.4,8.9c-0.1,3-0.3,6.1-0.4,9.2c-0.1,3.1-0.3,6.2-0.5,9.2c-0.1,1-0.1,1.9-0.2,2.9
			c-1,8.2-1.8,18.2-2.1,24.5H618.8z"/>
	</g>
	<g id="XMLID_234_">
		<circle id="XMLID_236_" class="st7" cx="70.3" cy="385.4" r="39.1"/>
		<path id="XMLID_235_" class="st8" d="M75.8,467c-0.3-6-1-15.2-1.9-23.2c-0.1-1.4-0.2-2.8-0.2-4.2c-0.2-3-0.4-6.1-0.5-9.2
			c-0.1-3.1-0.2-6.2-0.4-9.2c-0.1-3-0.3-6-0.4-8.9c-0.1-2.9-0.3-5.7-0.4-8.3c-0.1-2.6-0.3-5.1-0.4-7.5c-0.1-2.3-0.3-4.4-0.4-6.3
			c-0.1-1.9-0.2-3.5-0.3-4.9c-0.2-2.7-1.1-2.7-1.3,0c-0.1,1.3-0.2,3-0.3,4.9c-0.1,1.9-0.2,4-0.4,6.3c-0.1,2.3-0.3,4.8-0.4,7.5
			c-0.2,2.6-0.3,5.4-0.4,8.3c-0.1,2.9-0.3,5.9-0.4,8.9c-0.1,3-0.3,6.1-0.4,9.2c-0.1,3.1-0.3,6.2-0.5,9.2c-0.1,1-0.1,1.9-0.2,2.9
			c-1,8.2-1.8,18.2-2.1,24.5H75.8z"/>
	</g>
	<g id="XMLID_82_">
		<circle id="XMLID_279_" class="st7" cx="329.3" cy="333.3" r="39.5"/>
		<path id="XMLID_227_" class="st8" d="M337.7,467c0.1-1,0.1-2,0.1-3.2c0-6.9-1.2-26.3-3.1-42.3c-0.1-2.1-0.2-4.2-0.4-6.4
			c-0.3-4.6-0.6-9.3-0.8-14c-0.2-4.7-0.4-9.4-0.6-14c-0.2-4.6-0.4-9.1-0.6-13.5c-0.2-4.4-0.4-8.6-0.6-12.7c-0.2-4-0.4-7.8-0.6-11.3
			c-0.2-3.5-0.4-6.7-0.6-9.6c-0.2-2.9-0.3-5.3-0.5-7.4c-0.3-4.1-1.7-4.1-2,0c-0.1,2-0.3,4.5-0.5,7.4c-0.2,2.9-0.4,6.1-0.6,9.6
			c-0.2,3.5-0.4,7.3-0.6,11.3c-0.2,4-0.4,8.3-0.7,12.7c-0.2,4.4-0.5,8.9-0.6,13.5c-0.2,4.6-0.4,9.3-0.6,14c-0.2,4.7-0.5,9.4-0.8,14
			c-0.1,1.5-0.2,2.9-0.3,4.4c-2,16.3-3.4,37.1-3.4,44.3c0,1.2,0,2.2,0.1,3.2H337.7z"/>
	</g>
	<g id="XMLID_240_">
		<circle id="XMLID_242_" class="st7" cx="670.3" cy="347.1" r="44.9"/>
		<path id="XMLID_241_" class="st8" d="M678.2,467c0-0.3,0-0.5,0-0.8c0-6.4-1.1-24.4-2.9-39.2c-0.1-2-0.2-3.9-0.3-5.9
			c-0.3-4.3-0.5-8.6-0.7-13c-0.2-4.3-0.3-8.7-0.5-13c-0.2-4.3-0.4-8.5-0.6-12.6c-0.2-4.1-0.4-8-0.6-11.7c-0.2-3.7-0.4-7.3-0.6-10.5
			c-0.2-3.3-0.4-6.2-0.5-8.9c-0.2-2.6-0.3-5-0.4-6.9c-0.3-3.8-1.6-3.8-1.8,0c-0.1,1.9-0.3,4.2-0.4,6.9c-0.2,2.6-0.3,5.6-0.5,8.9
			c-0.2,3.3-0.4,6.8-0.6,10.5c-0.2,3.7-0.4,7.7-0.6,11.7c-0.2,4.1-0.4,8.3-0.6,12.6c-0.2,4.3-0.4,8.6-0.5,13
			c-0.2,4.3-0.4,8.7-0.7,13c-0.1,1.4-0.2,2.7-0.2,4.1c-1.9,15.1-3.1,34.4-3.1,41.1c0,0.3,0,0.5,0,0.8H678.2z"/>
	</g>
	<g id="XMLID_84_">
		<g id="XMLID_85_">
			<polygon id="XMLID_192_" class="st9" points="314,467.1 292.3,467.1 297.9,126.4 308.4,126.4 			"/>
			<path id="XMLID_191_" class="st10" d="M297.9,126.4h10.5c-5.1,4.1-8.7,10.8-10.8,19.9L297.9,126.4z"/>
			<g id="XMLID_86_">
				<polygon id="XMLID_95_" class="st11" points="309.2,124.4 305.7,127.8 350.1,191.9 416.2,228.9 403.8,216.6 353.6,188.4 				"/>
				<polygon id="XMLID_94_" class="st9" points="309.2,124.4 353.6,188.4 403.8,216.6 310.4,123.2 				"/>
				<polygon id="XMLID_93_" class="st11" points="302,115.3 306.9,115.9 331.3,41.9 321.1,-33.2 318.7,-15.8 326.4,41.2 				"/>
				<polygon id="XMLID_92_" class="st9" points="302,115.3 326.4,41.2 318.7,-15.8 300.3,115 				"/>
				<polygon id="XMLID_91_" class="st11" points="299,126.4 296.6,122.1 222.8,147.2 169,200.5 184.3,192 225.2,151.5 				"/>
				<polygon id="XMLID_90_" class="st9" points="299,126.4 225.2,151.5 184.3,192 299.9,127.9 				"/>
				<circle id="XMLID_89_" class="st12" cx="303.1" cy="121.3" r="9.9"/>
				<circle id="XMLID_88_" class="st13" cx="303.1" cy="121.3" r="6.4"/>
				<path id="XMLID_87_" class="st14" d="M306.8,122.4c-1-0.3-1.8-1.6-2.7-2.3c-0.8-0.8-2.2-1.4-2.7-2.3c-0.2-0.5,0.2-1.2,1.3-1.5
					c1-0.3,2.6-0.2,3.9,0.9c1.3,1.1,1.7,2.6,1.5,3.7C308,122,307.3,122.5,306.8,122.4z"/>
			</g>
		</g>
	</g>
	<g id="XMLID_199_">
		<g id="XMLID_201_">
			<polygon id="XMLID_225_" class="st9" points="477.2,467 455.5,467 461.1,228.9 471.6,228.9 			"/>
			<path id="XMLID_224_" class="st10" d="M461.1,228.9h10.5c-5.1,4.1-8.7,10.8-10.8,19.9L461.1,228.9z"/>
			<g id="XMLID_202_">
				<polygon id="XMLID_223_" class="st11" points="472.4,226.9 468.9,230.3 513.3,294.4 579.4,331.5 567,319.1 516.8,290.9 				"/>
				<polygon id="XMLID_222_" class="st9" points="472.4,226.9 516.8,290.9 567,319.1 473.6,225.7 				"/>
				<polygon id="XMLID_221_" class="st11" points="465.2,217.8 470.1,218.4 494.5,144.4 484.3,69.4 481.9,86.7 489.6,143.7 				"/>
				<polygon id="XMLID_215_" class="st9" points="465.2,217.8 489.6,143.7 481.9,86.7 463.5,217.5 				"/>
				<polygon id="XMLID_207_" class="st11" points="462.2,228.9 459.9,224.6 386.1,249.7 332.2,303 347.5,294.5 388.4,254 				"/>
				<polygon id="XMLID_206_" class="st9" points="462.2,228.9 388.4,254 347.5,294.5 463.1,230.4 				"/>
				<circle id="XMLID_205_" class="st12" cx="466.3" cy="223.8" r="9.9"/>
				<circle id="XMLID_204_" class="st13" cx="466.3" cy="223.8" r="6.4"/>
				<path id="XMLID_203_" class="st14" d="M470,224.9c-1-0.3-1.8-1.6-2.7-2.3c-0.8-0.8-2.2-1.4-2.7-2.3c-0.2-0.5,0.2-1.2,1.3-1.5
					c1-0.3,2.6-0.2,3.9,0.9c1.3,1.1,1.7,2.6,1.5,3.7C471.2,224.5,470.5,225,470,224.9z"/>
			</g>
		</g>
	</g>
	<g id="XMLID_232_">
		<circle id="XMLID_273_" class="st7" cx="793.7" cy="385.4" r="39.1"/>
		<path id="XMLID_230_" class="st8" d="M799.2,467c-0.3-6-1-15.2-1.9-23.2c-0.1-1.4-0.2-2.8-0.2-4.2c-0.2-3-0.4-6.1-0.5-9.2
			c-0.1-3.1-0.2-6.2-0.4-9.2c-0.1-3-0.3-6-0.4-8.9c-0.1-2.9-0.3-5.7-0.4-8.3c-0.1-2.6-0.3-5.1-0.4-7.5c-0.1-2.3-0.3-4.4-0.4-6.3
			c-0.1-1.9-0.2-3.5-0.3-4.9c-0.2-2.7-1.1-2.7-1.3,0c-0.1,1.3-0.2,3-0.3,4.9c-0.1,1.9-0.2,4-0.4,6.3c-0.1,2.3-0.3,4.8-0.4,7.5
			c-0.2,2.6-0.3,5.4-0.4,8.3c-0.1,2.9-0.3,5.9-0.4,8.9c-0.1,3-0.3,6.1-0.4,9.2c-0.1,3.1-0.3,6.2-0.5,9.2c-0.1,1-0.1,1.9-0.2,2.9
			c-1,8.2-1.8,18.2-2.1,24.5H799.2z"/>
	</g>
	<g id="XMLID_231_">
		<circle id="XMLID_275_" class="st7" cx="864.7" cy="364.3" r="38.4"/>
		<path id="XMLID_229_" class="st8" d="M871.5,467c0-0.2,0-0.4,0-0.7c0-5.5-1-20.9-2.5-33.6c-0.1-1.7-0.2-3.4-0.3-5.1
			c-0.2-3.7-0.5-7.4-0.6-11.1c-0.1-3.7-0.3-7.4-0.4-11.1c-0.1-3.7-0.3-7.3-0.5-10.8c-0.2-3.5-0.3-6.9-0.5-10.1
			c-0.2-3.2-0.3-6.2-0.5-9c-0.2-2.8-0.3-5.3-0.4-7.6c-0.1-2.3-0.3-4.2-0.4-5.9c-0.2-3.3-1.4-3.3-1.6,0c-0.1,1.6-0.2,3.6-0.4,5.9
			c-0.1,2.3-0.3,4.8-0.5,7.6c-0.2,2.8-0.3,5.8-0.5,9c-0.2,3.2-0.3,6.6-0.5,10.1c-0.2,3.5-0.4,7.1-0.5,10.8
			c-0.2,3.7-0.3,7.4-0.5,11.1c-0.1,3.7-0.4,7.4-0.6,11.1c-0.1,1.2-0.1,2.3-0.2,3.5c-1.6,13-2.7,29.5-2.7,35.2c0,0.2,0,0.4,0,0.7
			H871.5z"/>
	</g>
	<g id="XMLID_226_">
		<circle id="XMLID_277_" class="st7" cx="835.5" cy="277.7" r="34.8"/>
		<path id="XMLID_228_" class="st8" d="M846.5,467c0.3-2,0.5-4.4,0.5-7.3c0-9.2-1.6-35.1-4.1-56.4c-0.1-2.8-0.3-5.6-0.5-8.5
			c-0.4-6.1-0.8-12.4-1-18.6c-0.2-6.2-0.5-12.5-0.7-18.6c-0.2-6.1-0.5-12.2-0.8-18c-0.3-5.9-0.5-11.5-0.8-16.9
			c-0.3-5.4-0.6-10.4-0.8-15.1c-0.3-4.7-0.5-9-0.7-12.8c-0.2-3.8-0.4-7.1-0.6-9.8c-0.4-5.5-2.3-5.5-2.7,0c-0.2,2.7-0.4,6-0.6,9.8
			c-0.2,3.8-0.5,8.1-0.8,12.8c-0.3,4.7-0.5,9.8-0.8,15.1c-0.3,5.4-0.6,11-0.9,16.9c-0.3,5.9-0.6,11.9-0.9,18
			c-0.3,6.1-0.5,12.4-0.8,18.6c-0.2,6.2-0.6,12.5-1.1,18.6c-0.1,2-0.2,3.9-0.4,5.8c-2.7,21.7-4.5,49.4-4.5,59c0,2.9,0.2,5.3,0.5,7.3
			H846.5z"/>
	</g>
	<g id="XMLID_190_" class="st3">
		<path id="XMLID_210_" class="st15" d="M763.5,452.5c0,0.2,0,0.3,0,0.5c0.2,5.9,3.9,10.9,9.2,13c1.6,0.6,3.4,1,5.3,1
			c8,0,14.5-6.5,14.5-14.4c0,0,0,0,0,0c0-5.9-3.5-10.9-8.5-13.2c-1.8-0.8-3.9-1.3-6-1.3c-2.4,0-4.7,0.6-6.7,1.6
			C766.7,442.1,763.5,446.9,763.5,452.5z M772,452.5c0-3.3,2.7-6,6-6c2.8,0,5.2,1.9,5.8,4.6c0.1,0.5,0.2,0.9,0.2,1.4
			c0,3.3-2.7,6-6,6C774.7,458.5,772,455.8,772,452.5z"/>
		<path id="XMLID_213_" class="st15" d="M689.5,440.7c0,1.2,0.1,2.4,0.3,3.6c0.1,0.7,0.2,1.4,0.4,2.1c2.1,9.6,9.5,17.3,19,19.7
			c2.1,0.6,4.4,0.9,6.7,0.9c6.5,0,12.5-2.4,17.1-6.3c2.7-2.3,4.9-5,6.4-8.2c1.8-3.6,2.8-7.6,2.8-11.9c0-4.2-1-8.2-2.8-11.8
			c-0.5-1-1.1-2-1.8-3c-0.5-0.8-1.1-1.5-1.7-2.2c-1.1-1.3-2.3-2.5-3.6-3.5c-4.5-3.7-10.3-5.8-16.5-5.8c-4,0-7.8,0.9-11.2,2.5
			l-1.1,0.5c-2.2,1.2-4.2,2.6-6,4.3C692.6,426.5,689.5,433.2,689.5,440.7z M705.1,439c0.8-5.2,5.3-9.3,10.8-9.3
			c1.9,0,3.7,0.5,5.2,1.3c3.4,1.8,5.7,5.5,5.7,9.6c0,0.2,0,0.4,0,0.6c-0.2,4.2-2.9,7.8-6.7,9.4c-1.3,0.5-2.7,0.9-4.2,0.9
			c-6,0-10.9-4.9-10.9-10.9C705,440.1,705,439.5,705.1,439z"/>
		<path id="XMLID_124_" class="st16" d="M702.7,427c-3.6,3.5-5.8,8.3-5.8,13.7c0,0.9,0.1,1.7,0.2,2.6c0.1,0.5,0.2,1,0.3,1.5
			c1.5,6.9,6.9,12.4,13.7,14.2c1.5,0.4,3.1,0.6,4.8,0.6c4.7,0,9-1.7,12.3-4.5c1.9-1.6,3.5-3.6,4.6-5.9c1.3-2.6,2-5.5,2-8.5
			c0-3.1-0.7-5.9-2-8.5c-0.4-0.7-0.8-1.5-1.3-2.2c-0.4-0.6-0.8-1.1-1.2-1.6c-0.8-0.9-1.6-1.8-2.6-2.5c-3.3-2.6-7.4-4.2-11.9-4.2
			c-2.9,0-5.6,0.7-8.1,1.8l-0.8,0.4C705.4,424.7,704,425.8,702.7,427z M705,440.7c0-0.6,0-1.1,0.1-1.7c0.8-5.2,5.3-9.3,10.8-9.3
			c1.9,0,3.7,0.5,5.2,1.3c3.4,1.8,5.7,5.5,5.7,9.6c0,0.2,0,0.4,0,0.6c-0.2,4.2-2.9,7.8-6.7,9.4c-1.3,0.5-2.7,0.9-4.2,0.9
			C709.8,451.6,705,446.7,705,440.7z"/>
		<path id="XMLID_214_" class="st17" d="M770.8,393.6h7c0.4,0,0.7,0.3,0.7,0.7l0,0c0,0.4-0.3,0.7-0.7,0.7h-7c-0.4,0-0.7-0.3-0.7-0.7
			l0,0C770.1,393.9,770.4,393.6,770.8,393.6z"/>
		<circle id="XMLID_111_" class="st16" cx="778" cy="452.5" r="10"/>
		<circle id="XMLID_189_" class="st18" cx="778" cy="452.5" r="7.2"/>
		<circle id="XMLID_109_" class="st17" cx="778" cy="452.5" r="6"/>
		<path id="XMLID_117_" class="st19" d="M762.4,446c0-0.1,0.1-0.1,0.1-0.2c1.3-3,3.8-5.6,6.8-7.4c2.7-1.6,5.7-2.5,8.7-2.5
			c1.5,0,3,0.2,4.3,0.7c0.1,0,0.2,0,0.2,0v2.1c-1.4-0.5-3-0.7-4.6-0.7c-2.4,0-4.7,0.6-6.7,1.6c-3.6,1.9-6.4,5.3-7.4,9.3h-2.2
			C761.8,448,762.1,446.8,762.4,446z"/>
		<path id="XMLID_112_" class="st20" d="M773.9,452.4c1.1,0.4,6.9,0.4,8.1,0c1.3-0.3,0.2-4.4-4-4.5
			C773.7,447.9,772.7,452.1,773.9,452.4z"/>
		<circle id="XMLID_188_" class="st18" cx="715.9" cy="440.7" r="13.2"/>
		<circle id="XMLID_115_" class="st17" cx="715.9" cy="440.7" r="10.9"/>
		<path id="XMLID_114_" class="st20" d="M708.5,440.4c2,0.6,12.6,0.6,14.7,0c2.3-0.5,0.4-8.1-7.3-8.2
			C708.1,432.3,706.2,439.9,708.5,440.4z"/>
		<path id="XMLID_126_" class="st17" d="M743.3,449.3c-0.2,0.6,0.2,1.1,0.8,1.1l0,0h2.1h14.1c0.6,0,1.2-0.5,1.3-1.1
			c0.2-1,0.4-2.5,0.7-3.3c0-0.1,0.1-0.1,0.1-0.2c1.3-3,3.8-5.6,6.8-7.4c2.7-1.6,5.7-2.5,8.7-2.5c1.5,0,3,0.2,4.3,0.7
			c0.8,0.3,1.7-0.4,1.7-1.2v-2.5v-25.8v-0.3c0-1.5-0.7-2.7-1.7-2.7h-4.9h-6.3h-14.3h-7.7c-0.3-1.6-0.6-3.2-0.9-4.9
			c-1.2-6.4-2.3-12.7-3.5-19.1h0.8c1.2,0,2.3-1,2.3-2.3v-0.3c0-1.2-1-2.3-2.3-2.3h-2.5c-2,0-3.9,0-5.9,0c-1.7,0-3.4,0-5.1,0
			c-1.2,0-2.4,0-3.6,0c-2.5,0-4.9,0-7.4,0c-1.2,0-2.4,0-3.5,0c-4,0-8,0-11.9,0h-1.5c-1,0-1.9,0.7-2.2,1.6c-0.1,0.2-0.1,0.4-0.1,0.6
			v0.3c0,1.2,0.9,2.2,2.1,2.3c-0.8,4.2-1.6,8.4-2.3,12.7c-0.7,3.8-1.4,7.5-2.1,11.3h-0.4c-0.9,0-1.7,1.2-1.7,2.7v2v8c0,0,0,0,0,0
			c0,0.7,0.8,1,1.3,0.6c1.1-0.8,2.3-1.5,3.5-2.2l1.1-0.6c3.7-1.8,7.9-2.8,12.3-2.8c6.8,0,13.1,2.4,18.1,6.4c1.4,1.2,2.7,2.4,3.9,3.8
			c0.7,0.8,1.3,1.6,1.8,2.4c0.7,1,1.3,2.1,1.9,3.3c1.9,3.9,3,8.3,3,12.9C744.7,443.7,744.2,446.6,743.3,449.3z M719.2,404.2
			c-0.6,0-1.2,0-1.8,0c-2.4,0-4.8,0-7.2,0c0.2-1.6,0.5-3.1,0.7-4.7c0.8-5.7,2.5-17.1,2.5-17.1l0.3-2.2c0,0,3.8,0,5.4,0v2.1V404.2z
			 M744.6,404.2c-2.9,0-5.7,0-8.6,0c-5.1,0-10.3,0-15.4,0v-21.4v-2.5c1.7,0,3.3,0,5,0c1.3,0,2.6,0,4,0c1.6,0,3.1,0,4.7,0
			c2.1,0,6.8,0,6.8,0l0.4,2.2C741.4,382.4,743.5,396.9,744.6,404.2z M760.3,418.9L760.3,418.9c0-0.5,0.4-0.9,0.9-0.9h16.8
			c0.5,0,0.9,0.4,0.9,0.9v0c0,0.5-0.4,0.9-0.9,0.9h-16.8C760.7,419.8,760.3,419.4,760.3,418.9z M760.3,415.8L760.3,415.8
			c0-0.5,0.4-0.9,0.9-0.9h16.8c0.5,0,0.9,0.4,0.9,0.9l0,0c0,0.5-0.4,0.9-0.9,0.9h-16.8C760.7,416.8,760.3,416.3,760.3,415.8z
			 M760.3,412.8c0-0.5,0.4-0.9,0.9-0.9h8.2h8.7c0.5,0,0.9,0.4,0.9,0.9l0,0c0,0.5-0.4,0.9-0.9,0.9h-14.4h-2.4
			C760.7,413.8,760.3,413.3,760.3,412.8L760.3,412.8z"/>
		<g id="XMLID_110_" class="st21">
			<path id="XMLID_116_" class="st22" d="M742.2,440.7c0-4.2-1-8.2-2.8-11.8c-0.5-1-1.1-2-1.8-3c-0.5-0.8-1.1-1.5-1.7-2.2
				c-1.1-1.3-2.3-2.5-3.6-3.5c-4.5-3.7-10.3-5.8-16.5-5.8c-4,0-7.8,0.9-11.2,2.5l-1.1,0.5c-1.3,0.7-2.6,1.5-3.7,2.4v-3
				c0.8-0.6,1.7-1.1,2.6-1.6l1.1-0.6c3.7-1.8,7.9-2.8,12.3-2.8c6.8,0,13.1,2.4,18.1,6.4c1.4,1.2,2.7,2.4,3.9,3.8
				c0.7,0.8,1.3,1.6,1.8,2.4c0.7,1,1.3,2.1,1.9,3.3c1.9,3.9,3,8.3,3,12.9c0,2.9-0.4,5.7-1.2,8.3h-2.6
				C741.7,446.4,742.2,443.6,742.2,440.7z"/>
		</g>
		<path id="XMLID_113_" class="st19" d="M778.1,413.8h-16.8c-0.5,0-0.9-0.4-0.9-0.9l0,0c0-0.5,0.4-0.9,0.9-0.9h16.8
			c0.5,0,0.9,0.4,0.9,0.9l0,0C779,413.3,778.6,413.8,778.1,413.8z"/>
		<path id="XMLID_182_" class="st23" d="M778.1,413.2h-16.8c-0.5,0-0.9-0.4-0.9-0.9l0,0c0-0.5,0.4-0.9,0.9-0.9h16.8
			c0.5,0,0.9,0.4,0.9,0.9l0,0C779,412.8,778.6,413.2,778.1,413.2z"/>
		<path id="XMLID_119_" class="st19" d="M778.1,416.8h-16.8c-0.5,0-0.9-0.4-0.9-0.9l0,0c0-0.5,0.4-0.9,0.9-0.9h16.8
			c0.5,0,0.9,0.4,0.9,0.9l0,0C779,416.3,778.6,416.8,778.1,416.8z"/>
		<path id="XMLID_120_" class="st19" d="M778.1,419.8h-16.8c-0.5,0-0.9-0.4-0.9-0.9l0,0c0-0.5,0.4-0.9,0.9-0.9h16.8
			c0.5,0,0.9,0.4,0.9,0.9l0,0C779,419.4,778.6,419.8,778.1,419.8z"/>
		<path id="XMLID_184_" class="st23" d="M778.1,419.3h-16.8c-0.5,0-0.9-0.4-0.9-0.9l0,0c0-0.5,0.4-0.9,0.9-0.9h16.8
			c0.5,0,0.9,0.4,0.9,0.9l0,0C779,418.9,778.6,419.3,778.1,419.3z"/>
		<path id="XMLID_183_" class="st23" d="M778.1,416.3h-16.8c-0.5,0-0.9-0.4-0.9-0.9l0,0c0-0.5,0.4-0.9,0.9-0.9h16.8
			c0.5,0,0.9,0.4,0.9,0.9l0,0C779,415.9,778.6,416.3,778.1,416.3z"/>
		<rect id="XMLID_118_" x="771.1" y="395.1" class="st15" width="6.3" height="0.8"/>
		<polygon id="XMLID_187_" class="st24" points="771.1,395.1 777.4,395.1 771.1,395.8 		"/>
		<rect id="XMLID_185_" x="771.1" y="395.8" class="st16" width="6.3" height="8.3"/>
		<rect id="XMLID_186_" x="771.1" y="395.8" class="st25" width="2" height="8.3"/>
		<path id="XMLID_195_" class="st16" d="M720.6,380.2v24h24l-3.6-24H720.6z M722.4,382h17l3,20.3h-20V382z"/>
		<path id="XMLID_198_" class="st16" d="M710.3,404.2h8.9v-24h-5.4L710.3,404.2z M717.3,402.3h-4.9l3-20.3h1.9V402.3z"/>
		<polyline id="XMLID_216_" class="st23" points="719.2,404.2 717.4,404.2 710.3,404.2 		"/>
		<polyline id="XMLID_217_" class="st23" points="744.6,404.2 736,404.2 720.6,404.2 		"/>
		<line id="XMLID_218_" class="st23" x1="749.2" y1="404.2" x2="756.4" y2="404.2"/>
		<line id="XMLID_219_" class="st23" x1="699.3" y1="404.2" x2="699.7" y2="404.2"/>
		<path id="XMLID_220_" class="st23" d="M704.1,380.2h41.6c0,0-0.1,0-0.1,0h-0.8c1.2,6.4,2.3,12.7,3.5,19.1c0.3,1.6,0.6,3.2,0.9,4.9
			h-4.6c-1.1-7.2-3.2-21.7-3.2-21.7l-0.4-2.2c0,0-4.7,0-6.8,0c-1.6,0-3.1,0-4.7,0c-1.3,0-2.6,0-4,0c-1.7,0-3.3,0-5,0v2.5v21.4h-1.4
			v-21.9v-2.1c-1.6,0-5.4,0-5.4,0l-0.3,2.2c0,0-1.7,11.4-2.5,17.1c-0.2,1.6-0.5,3.1-0.7,4.7h-10.6c0.7-3.8,1.4-7.5,2.1-11.3
			C702.5,388.6,703.3,384.4,704.1,380.2z"/>
		<path id="XMLID_200_" class="st26" d="M741.1,380.7l-0.1-0.5c0,0-4.7,0-6.8,0c-1.6,0-3.1,0-4.7,0c-1.3,0-2.6,0-4,0
			c-1.7,0-3.3,0-5,0v2.5v0.9l-1.4,0.2v-1.5v-2.1c-1.6,0-5.4,0-5.4,0l-0.3,2.2c0,0-0.1,0.9-0.3,2.2l-10.1,1.4c0.4-2,0.7-3.9,1.1-5.9
			l40.7,0L741.1,380.7z"/>
	</g>
	<linearGradient id="XMLID_321_" gradientUnits="userSpaceOnUse" x1="700" y1="474.5057" x2="700" y2="609.9067">
		<stop  offset="0" style="stop-color:#54B948"/>
		<stop  offset="0.3764" style="stop-color:#00A651"/>
		<stop  offset="1" style="stop-color:#005826"/>
	</linearGradient>
	<rect id="XMLID_19_" y="467" class="st27" width="1400" height="136.9"/>
	<rect id="XMLID_385_" y="467" class="st28" width="1400" height="136.9"/>
	<rect id="XMLID_83_" y="-376.1" class="st29" width="1400" height="980"/>
	<g id="XMLID_2_">
		<rect id="XMLID_4_" x="465.9" y="390.3" class="st30" width="85.2" height="76.8"/>
		<polygon id="XMLID_18_" class="st31" points="508.5,431.5 473.3,463.3 543.7,463.3 		"/>
		<path id="XMLID_14_" class="st30" d="M465.9,390.3v76.8h85.2v-76.8H465.9z M546.8,463.3h-76.7v-69.2h76.7V463.3z"/>
		<polygon id="XMLID_47_" class="st30" points="632.1,338 624.1,322.8 602.7,282.4 598.2,274 544,249.7 540.6,248.1 538.3,247.1 
			533,244.7 508.5,233.8 508.5,233.7 508.5,233.8 508.4,233.7 508.4,233.8 474.6,248.9 431.8,268.1 418.7,274 397.5,314 
			356.4,391.8 354.9,394.6 375,405.2 386.3,383.7 419.3,321.2 435,291.4 448,285.6 481.8,270.5 508.5,258.6 532.2,269.2 582,291.4 
			584.2,295.7 606.9,338.6 641.9,405.2 645.6,403.3 662,394.6 		"/>
		<path id="XMLID_50_" class="st31" d="M594.4,340.1l-19.8-37.5l-0.3-0.6l-45.7-20.4l-19.3-8.6l-0.8-0.4l-0.8,0.4l-21.7,9.7
			l-28.6,12.7l-14.7,6.5l-12.1,22.8l-28.9,54.6l-6.2,11.8l20.7,0l0,15.5l-0.1,60.4h9.9h39.9v-56.4v-20.3h14.4h21h15.3h20.1h14.4
			v20.3v56.4H591h9.9l-0.1-70.9l0-4.9h20.7L594.4,340.1z M514.9,359.5h-4.6h-3.5h-4.8h-8.5h-11.4v-1.9v-15.8v-19.6v-15.3H494h27.2
			h13.5v24.5v15.8v12.2h-8H514.9z"/>
		<polygon id="XMLID_8_" class="st30" points="506.8,359.5 510.3,359.5 514.9,359.5 526.7,359.5 534.7,359.5 534.7,347.3 
			534.7,331.4 534.7,306.9 521.2,306.9 494,306.9 482.2,306.9 482.2,322.2 482.2,341.8 482.2,357.6 482.2,359.5 493.6,359.5 
			502.1,359.5 		"/>
		<polygon id="XMLID_3_" class="st32" points="507.2,354.4 510,354.4 513.6,354.4 523.2,354.4 529.7,354.4 529.7,344.5 529.7,331.8 
			529.7,312 518.7,312 496.8,312 487.3,312 487.3,324.3 487.3,340.1 487.3,352.8 487.3,354.4 496.5,354.4 503.3,354.4 		"/>
		<polygon id="XMLID_9_" class="st29" points="496.8,322.9 487.3,322.9 487.3,324.3 487.3,335.2 487.3,340.1 487.3,351 487.3,352.8 
			487.3,354.4 496.5,354.4 503.3,354.4 507.2,354.4 510,354.4 513.6,354.4 523.2,354.4 529.7,354.4 529.7,344.5 529.7,342.6 
			529.7,331.8 529.7,322.9 518.7,322.9 		"/>
		<polygon id="XMLID_5_" class="st29" points="496.8,322.9 487.3,322.9 487.3,324.3 487.3,335.2 487.3,340.1 487.3,351 487.3,352.8 
			487.3,354.4 496.5,354.4 503.3,354.4 507.2,354.4 510,354.4 513.6,354.4 523.2,354.4 529.7,354.4 529.7,344.5 529.7,342.6 
			529.7,331.8 529.7,322.9 518.7,322.9 		"/>
		<polygon id="XMLID_10_" class="st33" points="606.9,338.6 584.2,295.7 582,291.4 532.2,269.2 508.5,258.6 481.8,270.5 448,285.6 
			435,291.4 419.3,321.2 386.3,383.7 382.3,391.2 395.5,391.2 401.8,379.5 430.6,324.9 442.7,302.1 457.3,295.5 485.9,282.8 
			507.6,273.1 508.5,272.7 509.3,273.1 528.6,281.7 574.2,302.1 574.6,302.7 594.4,340.1 621.4,391.2 634.6,391.2 		"/>
		<polygon id="XMLID_6_" class="st34" points="574.6,302.7 574.2,302.1 528.6,281.7 509.3,273.1 508.5,272.7 507.6,273.1 
			485.9,282.8 457.3,295.5 442.7,302.1 430.6,324.9 401.8,379.5 395.5,391.2 401.9,391.2 407.8,380.1 435,328.6 446.4,307.1 
			460.2,301 487.2,288.9 507.7,279.8 508.5,279.4 509.3,279.8 527.4,287.9 570.5,307.1 570.8,307.7 589.5,343 615,391.2 
			621.4,391.2 594.4,340.1 		"/>
		<polygon id="XMLID_7_" class="st35" points="628.3,391.2 634.6,391.2 606.9,338.6 584.2,295.7 582,291.4 532.2,269.2 508.5,258.6 
			481.8,270.5 448,285.6 435,291.4 419.3,321.2 386.3,383.7 382.3,391.2 388.6,391.2 393.6,381.9 424.6,323.1 439.3,295.1 
			451.6,289.6 483.4,275.4 508.5,264.2 530.8,274.2 577.6,295.1 579.7,299.1 601,339.5 		"/>
		<polygon id="XMLID_11_" class="st33" points="416.2,391.2 395.5,391.2 416.2,391.2 		"/>
		<polygon id="XMLID_15_" class="st34" points="511.6,428.7 546.8,460.5 546.8,396.9 		"/>
		<polygon id="XMLID_16_" class="st34" points="505.3,428.7 470.1,396.9 470.1,460.5 		"/>
		<polygon id="XMLID_17_" class="st34" points="543.7,394.1 473.3,394.1 508.5,425.9 		"/>
		<polygon id="XMLID_29_" class="st31" points="537.4,399.8 479.5,399.8 508.5,425.9 		"/>
		<polygon id="XMLID_20_" class="st31" points="541.2,402 511.6,428.7 541.2,455.4 		"/>
		<polygon id="XMLID_22_" class="st34" points="541.2,463.3 543.7,463.3 541.2,461 		"/>
		<polygon id="XMLID_21_" class="st34" points="475.7,463.3 475.7,461 473.3,463.3 		"/>
		<polygon id="XMLID_23_" class="st31" points="475.7,402 475.7,455.4 505.3,428.7 		"/>
		<g id="XMLID_35_">
			<polygon id="XMLID_36_" class="st29" points="463.8,292.7 461.5,293.7 555.4,293.7 553.1,292.7 			"/>
			<polygon id="XMLID_37_" class="st29" points="482.2,316 482.2,315 435.9,315 435.3,316 			"/>
			<polygon id="XMLID_38_" class="st29" points="534.7,315 534.7,316 581.6,316 581.1,315 			"/>
			<polygon id="XMLID_39_" class="st29" points="534.7,337.3 534.7,338.3 593.4,338.3 592.9,337.3 			"/>
			<polygon id="XMLID_40_" class="st29" points="482.2,338.3 482.2,337.3 424.1,337.3 423.5,338.3 			"/>
			<polygon id="XMLID_41_" class="st29" points="412.2,359.7 411.7,360.7 605.2,360.7 604.7,359.7 			"/>
			<polygon id="XMLID_42_" class="st29" points="400.4,382 399.9,383 617,383 616.5,382 			"/>
			<rect id="XMLID_43_" x="551.1" y="404.3" class="st29" width="49.7" height="1"/>
			<rect id="XMLID_44_" x="416.2" y="404.3" class="st29" width="49.7" height="1"/>
			<rect id="XMLID_45_" x="416.1" y="426.7" class="st29" width="49.8" height="1"/>
			<rect id="XMLID_46_" x="551.1" y="426.7" class="st29" width="49.8" height="1"/>
			<rect id="XMLID_51_" x="551.1" y="449" class="st29" width="49.8" height="1"/>
			<rect id="XMLID_52_" x="416.1" y="449" class="st29" width="49.8" height="1"/>
		</g>
	</g>
	<g id="XMLID_24_">
		<rect id="XMLID_81_" x="140.6" y="390.3" class="st30" width="85.2" height="76.8"/>
		<polygon id="XMLID_80_" class="st31" points="183.2,431.5 148,463.3 218.4,463.3 		"/>
		<path id="XMLID_77_" class="st30" d="M140.6,390.3v76.8h85.2v-76.8H140.6z M221.6,463.3h-76.7v-69.2h76.7V463.3z"/>
		<polygon id="XMLID_76_" class="st30" points="306.8,338 298.8,322.8 277.4,282.4 273,274 218.7,249.7 215.3,248.1 213,247.1 
			207.7,244.7 183.3,233.8 183.3,233.7 183.2,233.8 183.2,233.7 183.2,233.8 149.3,248.9 106.5,268.1 93.5,274 72.3,314 31.2,391.8 
			29.7,394.6 49.7,405.2 61.1,383.7 94,321.2 109.7,291.4 122.8,285.6 156.5,270.5 183.2,258.6 207,269.2 256.7,291.4 259,295.7 
			281.6,338.6 316.7,405.2 320.3,403.3 336.8,394.6 		"/>
		<path id="XMLID_73_" class="st31" d="M269.1,340.1l-19.8-37.5l-0.3-0.6l-45.7-20.4l-19.3-8.6l-0.8-0.4l-0.8,0.4l-21.7,9.7
			l-28.6,12.7l-14.7,6.5l-12.1,22.8l-28.9,54.6l-6.2,11.8l20.7,0l0,15.5l-0.1,60.4h9.9h39.9v-56.4v-20.3H155h21h15.3h20.1h14.4v20.3
			v56.4h39.9h9.9l-0.1-70.9l0-4.9h20.7L269.1,340.1z M189.6,359.5h-4.6h-3.5h-4.8h-8.5h-11.4v-1.9v-15.8v-19.6v-15.3h11.8h27.2h13.5
			v24.5v15.8v12.2h-8H189.6z"/>
		<polygon id="XMLID_72_" class="st30" points="181.6,359.5 185.1,359.5 189.6,359.5 201.5,359.5 209.5,359.5 209.5,347.3 
			209.5,331.4 209.5,306.9 195.9,306.9 168.7,306.9 156.9,306.9 156.9,322.2 156.9,341.8 156.9,357.6 156.9,359.5 168.3,359.5 
			176.8,359.5 		"/>
		<polygon id="XMLID_71_" class="st32" points="181.9,354.4 184.7,354.4 188.4,354.4 198,354.4 204.4,354.4 204.4,344.5 
			204.4,331.8 204.4,312 193.5,312 171.5,312 162,312 162,324.3 162,340.1 162,352.8 162,354.4 171.2,354.4 178.1,354.4 		"/>
		<polygon id="XMLID_70_" class="st29" points="171.5,322.9 162,322.9 162,324.3 162,335.2 162,340.1 162,351 162,352.8 162,354.4 
			171.2,354.4 178.1,354.4 181.9,354.4 184.7,354.4 188.4,354.4 198,354.4 204.4,354.4 204.4,344.5 204.4,342.6 204.4,331.8 
			204.4,322.9 193.5,322.9 		"/>
		<polygon id="XMLID_69_" class="st29" points="171.5,322.9 162,322.9 162,324.3 162,335.2 162,340.1 162,351 162,352.8 162,354.4 
			171.2,354.4 178.1,354.4 181.9,354.4 184.7,354.4 188.4,354.4 198,354.4 204.4,354.4 204.4,344.5 204.4,342.6 204.4,331.8 
			204.4,322.9 193.5,322.9 		"/>
		<polygon id="XMLID_68_" class="st33" points="281.6,338.6 259,295.7 256.7,291.4 207,269.2 183.2,258.6 156.5,270.5 122.8,285.6 
			109.7,291.4 94,321.2 61.1,383.7 57.1,391.2 70.3,391.2 76.5,379.5 105.4,324.9 117.4,302.1 132.1,295.5 160.7,282.8 182.4,273.1 
			183.2,272.7 184.1,273.1 203.3,281.7 249,302.1 249.3,302.7 269.1,340.1 296.1,391.2 309.3,391.2 		"/>
		<polygon id="XMLID_67_" class="st34" points="249.3,302.7 249,302.1 203.3,281.7 184.1,273.1 183.2,272.7 182.4,273.1 
			160.7,282.8 132.1,295.5 117.4,302.1 105.4,324.9 76.5,379.5 70.3,391.2 76.7,391.2 82.6,380.1 109.8,328.6 121.2,307.1 135,301 
			161.9,288.9 182.4,279.8 183.2,279.4 184,279.8 202.2,287.9 245.3,307.1 245.6,307.7 264.3,343 289.8,391.2 296.1,391.2 
			269.1,340.1 		"/>
		<polygon id="XMLID_66_" class="st35" points="303,391.2 309.3,391.2 281.6,338.6 259,295.7 256.7,291.4 207,269.2 183.2,258.6 
			156.5,270.5 122.8,285.6 109.7,291.4 94,321.2 61.1,383.7 57.1,391.2 63.4,391.2 68.3,381.9 99.3,323.1 114.1,295.1 126.4,289.6 
			158.1,275.4 183.2,264.2 205.6,274.2 252.4,295.1 254.5,299.1 275.8,339.5 		"/>
		<polygon id="XMLID_65_" class="st33" points="90.9,391.2 70.3,391.2 90.9,391.2 		"/>
		<polygon id="XMLID_64_" class="st34" points="186.4,428.7 221.6,460.5 221.6,396.9 		"/>
		<polygon id="XMLID_63_" class="st34" points="180.1,428.7 144.8,396.9 144.8,460.5 		"/>
		<polygon id="XMLID_62_" class="st34" points="218.4,394.1 148,394.1 183.2,425.9 		"/>
		<polygon id="XMLID_61_" class="st31" points="212.2,399.8 154.3,399.8 183.2,425.9 		"/>
		<polygon id="XMLID_60_" class="st31" points="215.9,402 186.4,428.7 215.9,455.4 		"/>
		<polygon id="XMLID_59_" class="st34" points="215.9,463.3 218.4,463.3 215.9,461 		"/>
		<polygon id="XMLID_58_" class="st34" points="150.5,463.3 150.5,461 148,463.3 		"/>
		<polygon id="XMLID_57_" class="st31" points="150.5,402 150.5,455.4 180.1,428.7 		"/>
		<g id="XMLID_25_">
			<polygon id="XMLID_56_" class="st29" points="138.6,292.7 136.3,293.7 230.2,293.7 227.9,292.7 			"/>
			<polygon id="XMLID_55_" class="st29" points="156.9,316 156.9,315 110.6,315 110.1,316 			"/>
			<polygon id="XMLID_54_" class="st29" points="209.5,315 209.5,316 256.4,316 255.8,315 			"/>
			<polygon id="XMLID_53_" class="st29" points="209.5,337.3 209.5,338.3 268.2,338.3 267.6,337.3 			"/>
			<polygon id="XMLID_34_" class="st29" points="156.9,338.3 156.9,337.3 98.8,337.3 98.3,338.3 			"/>
			<polygon id="XMLID_33_" class="st29" points="87,359.7 86.5,360.7 280,360.7 279.4,359.7 			"/>
			<polygon id="XMLID_32_" class="st29" points="75.2,382 74.7,383 291.8,383 291.2,382 			"/>
			<rect id="XMLID_31_" x="225.8" y="404.3" class="st29" width="49.7" height="1"/>
			<rect id="XMLID_30_" x="90.9" y="404.3" class="st29" width="49.7" height="1"/>
			<rect id="XMLID_28_" x="90.9" y="426.7" class="st29" width="49.8" height="1"/>
			<rect id="XMLID_27_" x="225.8" y="426.7" class="st29" width="49.8" height="1"/>
			<rect id="XMLID_26_" x="225.8" y="449" class="st29" width="49.8" height="1"/>
			<rect id="XMLID_96_" x="90.8" y="449" class="st29" width="49.8" height="1"/>
		</g>
	</g>
	<path id="XMLID_161_" class="st36" d="M414.2,462.3h-0.4v-4.9v-1.8V445v-6.9v-3.7h-0.4l-1-1.8l-2.7-4.7l-0.7-1.2l-1,1.7l-3.4,5.9
		h-0.4v3.7h-6.6v-3.7h-0.4l-0.5-0.9l-3.9-6.8l-4.3,7.4l-0.2,0.3h-0.4v3.7h-3.3h-2.8v-3v-0.7h-0.4l-4.4-7.7l-1.1,2l-3.3,5.7h-0.4v5.7
		v12.4v7v2.8h-2.8h-1.8H367v-4.9v-1.8V445v-6.9v-3.7h-0.4l-1-1.8l-2.7-4.7l-0.7-1.2l-1,1.7l-3.4,5.9h-0.4v3.7h-6.6v-3.7h-0.4
		l-0.5-0.9l-3.9-6.8l-4.3,7.4l-0.2,0.3H341v3.7h-3.3h-2.8v-3v-0.7h-0.4l-4.4-7.7l-1.1,2l-3.3,5.7h-0.4v5.7v12.4v7v2.8h-2.8h-1.8
		h-0.4v-4.9v-1.8V445v-6.9v-3.7h-0.4l-1-1.8l-2.7-4.7l-0.7-1.2l-1,1.7l-3.4,5.9h-0.4v3.7h-6.6v-3.7h-0.4l-0.5-0.9l-3.9-6.8l-4.3,7.4
		l-0.2,0.3h-0.4v3.7h-3.3h-2.8v-3v-0.7h-0.4l-4.4-7.7l-1.1,2l-3.3,5.7h-0.4v5.7v12.4v7v2.8h-2.8v4.7h9.2h10.6h7.7h10.1h6.4h2.8h9.2
		h10.6h7.7h10.1h6.4h2.8h9.2h10.6h7.7h10.1h6.4h2.8v-4.7H414.2z M283.3,440.9c-0.4,0-0.8-0.4-0.8-0.8c0-0.4,0.4-0.8,0.8-0.8
		c0.4,0,0.8,0.4,0.8,0.8C284,440.6,283.7,440.9,283.3,440.9z M294.2,445.3v2.9v1.6v3.9v8.5h-6h0v-8.7v-3.7v-6.6v-0.8h6.1V445.3z
		 M299,440.9c-0.4,0-0.8-0.4-0.8-0.8c0-0.4,0.4-0.8,0.8-0.8c0.4,0,0.8,0.4,0.8,0.8C299.8,440.6,299.5,440.9,299,440.9z M310.5,445.5
		v7.1v9.7h-0.6h-6v-8.5v-4.4v-3v-2.9v-0.9h1.3h5.3V445.5z M315.4,440.9c-0.4,0-0.8-0.4-0.8-0.8s0.4-0.8,0.8-0.8
		c0.4,0,0.8,0.4,0.8,0.8S315.8,440.9,315.4,440.9z M330.1,440.9c-0.4,0-0.8-0.4-0.8-0.8c0-0.4,0.4-0.8,0.8-0.8
		c0.4,0,0.8,0.4,0.8,0.8C330.9,440.6,330.5,440.9,330.1,440.9z M341,445.3v2.9v1.6v3.9v8.5h-6h0v-8.7v-3.7v-6.6v-0.8h6.1V445.3z
		 M345.9,440.9c-0.4,0-0.8-0.4-0.8-0.8c0-0.4,0.4-0.8,0.8-0.8c0.4,0,0.8,0.4,0.8,0.8C346.7,440.6,346.3,440.9,345.9,440.9z
		 M357.3,445.5v7.1v9.7h-0.6h-6v-8.5v-4.4v-3v-2.9v-0.9h1.3h5.3V445.5z M362.2,440.9c-0.4,0-0.8-0.4-0.8-0.8s0.4-0.8,0.8-0.8
		s0.8,0.4,0.8,0.8S362.6,440.9,362.2,440.9z M376.9,440.9c-0.4,0-0.8-0.4-0.8-0.8c0-0.4,0.4-0.8,0.8-0.8c0.4,0,0.8,0.4,0.8,0.8
		C377.7,440.6,377.3,440.9,376.9,440.9z M387.8,445.3v2.9v1.6v3.9v8.5h-6h0v-8.7v-3.7v-6.6v-0.8h6.1V445.3z M392.7,440.9
		c-0.4,0-0.8-0.4-0.8-0.8c0-0.4,0.4-0.8,0.8-0.8c0.4,0,0.8,0.4,0.8,0.8C393.5,440.6,393.1,440.9,392.7,440.9z M404.1,445.5v7.1v9.7
		h-0.6h-6v-8.5v-4.4v-3v-2.9v-0.9h1.3h5.3V445.5z M409,440.9c-0.4,0-0.8-0.4-0.8-0.8s0.4-0.8,0.8-0.8c0.4,0,0.8,0.4,0.8,0.8
		S409.4,440.9,409,440.9z"/>
	<path id="XMLID_130_" class="st36" d="M89,462.3h-0.4v-4.9v-1.8V445v-6.9v-3.7h-0.4l-1-1.8l-2.7-4.7l-0.7-1.2l-1,1.7l-3.4,5.9h-0.4
		v3.7h-6.6v-3.7h-0.4l-0.5-0.9l-3.9-6.8l-4.3,7.4l-0.2,0.3h-0.4v3.7h-3.3h-2.8v-3v-0.7h-0.4l-4.4-7.7l-1.1,2l-3.3,5.7h-0.4v5.7v12.4
		v7v2.8H44h-1.8h-0.4v-4.9v-1.8V445v-6.9v-3.7h-0.4l-1-1.8l-2.7-4.7l-0.7-1.2l-1,1.7l-3.4,5.9h-0.4v3.7h-6.6v-3.7h-0.4l-0.5-0.9
		l-3.9-6.8l-4.3,7.4l-0.2,0.3h-0.4v3.7h-3.3H9.7v-3v-0.7H9.3l-4.4-7.7l-1.1,2l-3.3,5.7H0v5.7v12.4v7v2.8v4.7h6.4H17h7.7h10.1h6.4H44
		h9.2h10.6h7.7h10.1H88h2.8v-4.7H89z M4.8,440.9c-0.4,0-0.8-0.4-0.8-0.8c0-0.4,0.4-0.8,0.8-0.8c0.4,0,0.8,0.4,0.8,0.8
		C5.6,440.6,5.3,440.9,4.8,440.9z M15.8,445.3v2.9v1.6v3.9v8.5h-6h0v-8.7v-3.7v-6.6v-0.8h6.1V445.3z M20.6,440.9
		c-0.4,0-0.8-0.4-0.8-0.8c0-0.4,0.4-0.8,0.8-0.8c0.4,0,0.8,0.4,0.8,0.8C21.4,440.6,21.1,440.9,20.6,440.9z M32.1,445.5v7.1v9.7h-0.6
		h-6v-8.5v-4.4v-3v-2.9v-0.9h1.3h5.3V445.5z M36.9,440.9c-0.4,0-0.8-0.4-0.8-0.8s0.4-0.8,0.8-0.8s0.8,0.4,0.8,0.8
		S37.4,440.9,36.9,440.9z M51.6,440.9c-0.4,0-0.8-0.4-0.8-0.8c0-0.4,0.4-0.8,0.8-0.8s0.8,0.4,0.8,0.8
		C52.4,440.6,52.1,440.9,51.6,440.9z M62.6,445.3v2.9v1.6v3.9v8.5h-6h0v-8.7v-3.7v-6.6v-0.8h6.1V445.3z M67.4,440.9
		c-0.4,0-0.8-0.4-0.8-0.8c0-0.4,0.4-0.8,0.8-0.8c0.4,0,0.8,0.4,0.8,0.8C68.2,440.6,67.9,440.9,67.4,440.9z M78.9,445.5v7.1v9.7h-0.6
		h-6v-8.5v-4.4v-3v-2.9v-0.9h1.3h5.3V445.5z M83.8,440.9c-0.4,0-0.8-0.4-0.8-0.8s0.4-0.8,0.8-0.8s0.8,0.4,0.8,0.8
		S84.2,440.9,83.8,440.9z"/>
	<path id="XMLID_265_" class="st36" d="M878.4,434.4l-3.3-5.7l-1.1-2l-4.4,7.7h-0.4v0.7v3h-2.8h-3.3v-3.7h-0.4l-0.2-0.3l-4.3-7.4
		l-3.9,6.8l-0.5,0.9h-0.4v3.7h-6.6v-3.7h-0.4l-3.4-5.9l-1-1.7l-0.7,1.2l-2.7,4.7l-1,1.8h-0.4v3.7v6.9v10.5v1.8v4.9h-0.4h-1.8H832
		v-2.8v-7v-12.4v-5.7h-0.4l-3.3-5.7l-1.1-2l-4.4,7.7h-0.4v0.7v3h-2.8h-3.3v-3.7h-0.4l-0.2-0.3l-4.3-7.4l-3.9,6.8l-0.5,0.9h-0.4v3.7
		H800v-3.7h-0.4l-3.4-5.9l-1-1.7l-0.7,1.2l-2.7,4.7l-1,1.8h-0.4v3.7v6.9v10.5v1.8v4.9h-0.4h-1.8H788h-1.8h-0.4v-4.9v-1.8V445v-6.9
		v-3.7h-0.4l-1-1.8l-2.7-4.7l-0.7-1.2l-1,1.7l-3.4,5.9h-0.4v3.7h-6.6v-3.7h-0.4l-0.5-0.9l-3.9-6.8l-4.3,7.4l-0.2,0.3h-0.4v3.7h-3.3
		h-2.8v-3v-0.7h-0.4l-4.4-7.7l-1.1,2l-3.3,5.7h-0.4v5.7v12.4v7v2.8h-2.8h-1.8H739v-4.9v-1.8V445v-6.9v-3.7h-0.4l-1-1.8l-2.7-4.7
		l-0.7-1.2l-1,1.7l-3.4,5.9h-0.4v3.7h-6.6v-3.7h-0.4l-0.5-0.9l-3.9-6.8l-4.3,7.4l-0.2,0.3H713v3.7h-3.3H707v-3v-0.7h-0.4l-4.4-7.7
		l-1.1,2l-3.3,5.7h-0.4v5.7v12.4v7v2.8h-2.8h-1.8h-0.4v-4.9v-1.8V445v-6.9v-3.7h-0.4l-1-1.8l-2.7-4.7l-0.7-1.2l-1,1.7l-3.4,5.9h-0.4
		v3.7h-6.6v-3.7h-0.4l-0.5-0.9l-3.9-6.8l-4.3,7.4l-0.2,0.3h-0.4v3.7h-3.3h-2.8v-3v-0.7h-0.4l-4.4-7.7l-1.1,2l-3.3,5.7h-0.4v5.7v12.4
		v7v2.8h-2.8h-1.8h-0.4v-4.9v-1.8V445v-6.9v-3.7H645l-1-1.8l-2.7-4.7l-0.7-1.2l-1,1.7l-3.4,5.9h-0.4v3.7h-6.6v-3.7h-0.4l-0.5-0.9
		l-3.9-6.8l-4.3,7.4l-0.2,0.3h-0.4v3.7h-3.3h-2.8v-3v-0.7h-0.4l-4.4-7.7l-1.1,2l-3.3,5.7h-0.4v5.7v12.4v7v2.8h-2.8v4.7h9.2h10.6h7.7
		h10.1h6.4h2.8h9.2h10.6h7.7h10.1h6.4h2.8h9.2h10.6h7.7h10.1h6.4h2.8h9.2h10.6h7.7h10.1h6.4h2.7h0.1h2.7h6.4h10.1h7.7h10.6h9.2h2.8
		h6.4h10.1h7.7h10.6h6.4v-4.7v-2.8v-7v-12.4v-5.7H878.4z M608.5,440.9c-0.4,0-0.8-0.4-0.8-0.8c0-0.4,0.4-0.8,0.8-0.8
		s0.8,0.4,0.8,0.8C609.3,440.6,608.9,440.9,608.5,440.9z M619.4,445.3v2.9v1.6v3.9v8.5h-6h0v-8.7v-3.7v-6.6v-0.8h6.1V445.3z
		 M624.3,440.9c-0.4,0-0.8-0.4-0.8-0.8c0-0.4,0.4-0.8,0.8-0.8c0.4,0,0.8,0.4,0.8,0.8C625.1,440.6,624.7,440.9,624.3,440.9z
		 M635.7,445.5v7.1v9.7h-0.6h-6v-8.5v-4.4v-3v-2.9v-0.9h1.3h5.3V445.5z M640.6,440.9c-0.4,0-0.8-0.4-0.8-0.8s0.4-0.8,0.8-0.8
		s0.8,0.4,0.8,0.8S641,440.9,640.6,440.9z M655.3,440.9c-0.4,0-0.8-0.4-0.8-0.8c0-0.4,0.4-0.8,0.8-0.8s0.8,0.4,0.8,0.8
		C656.1,440.6,655.7,440.9,655.3,440.9z M666.2,445.3v2.9v1.6v3.9v8.5h-6h0v-8.7v-3.7v-6.6v-0.8h6.1V445.3z M671.1,440.9
		c-0.4,0-0.8-0.4-0.8-0.8c0-0.4,0.4-0.8,0.8-0.8c0.4,0,0.8,0.4,0.8,0.8C671.9,440.6,671.5,440.9,671.1,440.9z M682.5,445.5v7.1v9.7
		H682h-6v-8.5v-4.4v-3v-2.9v-0.9h1.3h5.3V445.5z M687.4,440.9c-0.4,0-0.8-0.4-0.8-0.8s0.4-0.8,0.8-0.8c0.4,0,0.8,0.4,0.8,0.8
		S687.8,440.9,687.4,440.9z M702.1,440.9c-0.4,0-0.8-0.4-0.8-0.8c0-0.4,0.4-0.8,0.8-0.8s0.8,0.4,0.8,0.8
		C702.9,440.6,702.5,440.9,702.1,440.9z M713,445.3v2.9v1.6v3.9v8.5h-6h0v-8.7v-3.7v-6.6v-0.8h6.1V445.3z M717.9,440.9
		c-0.4,0-0.8-0.4-0.8-0.8c0-0.4,0.4-0.8,0.8-0.8c0.4,0,0.8,0.4,0.8,0.8C718.7,440.6,718.3,440.9,717.9,440.9z M729.3,445.5v7.1v9.7
		h-0.6h-6v-8.5v-4.4v-3v-2.9v-0.9h1.3h5.3V445.5z M734.2,440.9c-0.4,0-0.8-0.4-0.8-0.8s0.4-0.8,0.8-0.8s0.8,0.4,0.8,0.8
		S734.7,440.9,734.2,440.9z M748.9,440.9c-0.4,0-0.8-0.4-0.8-0.8c0-0.4,0.4-0.8,0.8-0.8s0.8,0.4,0.8,0.8
		C749.7,440.6,749.3,440.9,748.9,440.9z M759.8,445.3v2.9v1.6v3.9v8.5h-6h0v-8.7v-3.7v-6.6v-0.8h6.1V445.3z M764.7,440.9
		c-0.4,0-0.8-0.4-0.8-0.8c0-0.4,0.4-0.8,0.8-0.8c0.4,0,0.8,0.4,0.8,0.8C765.5,440.6,765.1,440.9,764.7,440.9z M776.2,445.5v7.1v9.7
		h-0.6h-6v-8.5v-4.4v-3v-2.9v-0.9h1.3h5.3V445.5z M781,440.9c-0.4,0-0.8-0.4-0.8-0.8s0.4-0.8,0.8-0.8c0.4,0,0.8,0.4,0.8,0.8
		S781.5,440.9,781,440.9z M795.1,440.9c-0.4,0-0.8-0.4-0.8-0.8s0.4-0.8,0.8-0.8s0.8,0.4,0.8,0.8S795.5,440.9,795.1,440.9z
		 M806.6,443.4v2.9v3v4.4v8.5h-6H800v-9.7v-7.1v-3.1h5.3h1.3V443.4z M811.4,440.9c-0.4,0-0.8-0.4-0.8-0.8c0-0.4,0.4-0.8,0.8-0.8
		c0.4,0,0.8,0.4,0.8,0.8C812.2,440.6,811.9,440.9,811.4,440.9z M822.3,443.3v6.6v3.7v8.7h0h-6v-8.5v-3.9v-1.6v-2.9v-2.8h6.1V443.3z
		 M827.2,440.9c-0.4,0-0.8-0.4-0.8-0.8c0-0.4,0.4-0.8,0.8-0.8s0.8,0.4,0.8,0.8C828,440.6,827.7,440.9,827.2,440.9z M841.9,440.9
		c-0.4,0-0.8-0.4-0.8-0.8s0.4-0.8,0.8-0.8s0.8,0.4,0.8,0.8S842.3,440.9,841.9,440.9z M853.4,443.4v2.9v3v4.4v8.5h-6h-0.6v-9.7v-7.1
		v-3.1h5.3h1.3V443.4z M858.2,440.9c-0.4,0-0.8-0.4-0.8-0.8c0-0.4,0.4-0.8,0.8-0.8s0.8,0.4,0.8,0.8
		C859,440.6,858.7,440.9,858.2,440.9z M869.2,443.3v6.6v3.7v8.7h0h-6v-8.5v-3.9v-1.6v-2.9v-2.8h6.1V443.3z M874,440.9
		c-0.4,0-0.8-0.4-0.8-0.8c0-0.4,0.4-0.8,0.8-0.8c0.4,0,0.8,0.4,0.8,0.8C874.8,440.6,874.5,440.9,874,440.9z"/>
	<g id="XMLID_318_" class="st3">
		<defs>
			<rect id="XMLID_317_" x="0" y="-376.1" width="1400" height="843.1"/>
		</defs>
		<clipPath id="XMLID_322_" class="st21">
			<use xlink:href="#XMLID_317_"  style="overflow:visible;"/>
		</clipPath>
		<g id="XMLID_5623_" class="st37">
			<circle id="XMLID_5625_" class="st38" cx="1400" cy="-376.1" r="432.3"/>
			<circle id="XMLID_5628_" class="st39" cx="1400" cy="-376.1" r="321.7"/>
			<circle id="XMLID_5626_" class="st38" cx="1400" cy="-376.1" r="205.9"/>
			<circle id="XMLID_5629_" class="st40" cx="1400" cy="-376.1" r="104.5"/>
		</g>
	</g>
	<g id="XMLID_416_" class="st3">
		<path id="XMLID_419_" class="st41" d="M334.8,483.6h4.4l0.2-1.9l0.2-2l0.1-1.1l0.3-2.6l0.7-5.7h-3.2
			C337,473.2,336,478.1,334.8,483.6z"/>
		<path id="XMLID_420_" class="st41" d="M312.8,485.7c0.4,0,0.8-0.2,0.9-0.5c0-0.3-0.3-0.5-0.7-0.5c-0.4,0-0.8,0.2-0.9,0.5
			C312,485.5,312.3,485.7,312.8,485.7z"/>
		<path id="XMLID_421_" class="st41" d="M343.9,484.7c-0.4,0-0.8,0.2-0.9,0.5c0,0.3,0.3,0.5,0.8,0.5c0.4,0,0.8-0.2,0.9-0.5
			C344.7,484.9,344.4,484.7,343.9,484.7z"/>
		<polygon id="XMLID_422_" class="st41" points="287.6,470.3 286.6,476.1 286.2,478.6 285.4,483.1 285.3,483.6 290,483.6 
			291.9,470.3 287.6,470.3 		"/>
		<path id="XMLID_424_" class="st41" d="M319.8,470.3l-0.4,3.3l-0.2,1.2l-1,7.1l-0.6,4.7l-0.3,2.5h-0.4l-1.2,1.2l-3.2,3.2l-0.8,0.8
			l-0.9-1.2l-0.8-1.1L306,515l4.7-5.2l3.6,1.4l4.3,1.6c0,0,0-0.1,0-0.1c0.3-3.4,0.4-6.7,0.5-10c0-1,0.1-2.1,0.1-3.1
			C318.7,488.9,319.2,475.8,319.8,470.3L319.8,470.3z"/>
		<path id="XMLID_425_" class="st41" d="M391.6,484.7c-0.4,0-0.8,0.2-0.8,0.5c0,0.3,0.3,0.5,0.8,0.5s0.8-0.2,0.8-0.5
			C392.4,484.9,392.1,484.7,391.6,484.7z"/>
		<polygon id="XMLID_426_" class="st41" points="381.5,470.3 381.1,476.1 380.9,478.6 380.6,483.1 380.6,483.6 386.7,483.6 
			386.9,481.7 387,479.7 387.1,478.6 387.2,476 387.6,470.3 381.6,470.3 		"/>
		<polygon id="XMLID_427_" class="st41" points="350.4,470.3 349.8,476 349.5,479 349.3,481 349.1,483 349,483.6 350.3,483.6 
			355.7,483.6 355.9,481.5 356.4,476.8 357,470.3 356.4,470.3 		"/>
		<path id="XMLID_428_" class="st41" d="M360.6,484.7c-0.4,0-0.8,0.2-0.9,0.5c0,0.3,0.3,0.5,0.8,0.5c0.4,0,0.8-0.2,0.9-0.5
			C361.4,484.9,361,484.7,360.6,484.7z"/>
		<path id="XMLID_429_" class="st41" d="M375.5,484.7c-0.4,0-0.8,0.2-0.9,0.5c0,0.3,0.3,0.5,0.8,0.5c0.4,0,0.8-0.2,0.9-0.5
			C376.3,484.9,376,484.7,375.5,484.7z"/>
		<path id="XMLID_430_" class="st41" d="M280.2,484.7c-0.4,0-0.9,0.2-0.9,0.5c-0.1,0.3,0.3,0.5,0.7,0.5c0.4,0,0.9-0.2,0.9-0.5
			C281,484.9,280.7,484.7,280.2,484.7z"/>
		<path id="XMLID_431_" class="st41" d="M87.4,470.3l-1.2,3.3l-0.5,1.2l-2.7,7.1l-1.8,4.7l-0.9,2.5h-0.4l-1.5,1.2l-4,3.2l-1,0.8
			l-0.6-1.2l-1.9-4.1h-0.4l1-2.5h-5.5c-0.8,1.7-1.7,3.5-2.5,5.3c-0.6,1.4-1.3,2.8-1.9,4.2c6.7,0.3,12.4,1.7,17,4.1l2.1-5.6l0.3-0.7
			l5.4-14.6l0.3-0.7l3-8.2h-1.8H87.4z"/>
		<polygon id="XMLID_432_" class="st41" points="8.2,470.3 5.6,476.1 4.5,478.6 2.4,483.1 2.2,483.6 8.3,483.6 9.2,481.7 
			10.1,479.7 10.6,478.6 11.8,476 14.3,470.3 8.3,470.3 		"/>
		<path id="XMLID_433_" class="st41" d="M29.4,484.7c-0.4,0-0.9,0.2-1,0.5c-0.1,0.3,0.1,0.5,0.6,0.5c0.4,0,0.9-0.2,1-0.5
			C30.2,484.9,29.9,484.7,29.4,484.7z"/>
		<polygon id="XMLID_434_" class="st41" points="397.3,470.3 397,476 396.9,479 396.7,481 396.6,483 396.6,483.6 397.9,483.6 
			403.3,483.6 403.4,481.5 403.7,476.8 404,470.3 403.4,470.3 		"/>
		<polygon id="XMLID_435_" class="st41" points="24.1,470.3 21.6,476 20.2,479 19.4,481 18.5,483 18.2,483.6 19.5,483.6 24.9,483.6 
			25.8,481.5 27.9,476.8 30.7,470.3 30.1,470.3 		"/>
		<path id="XMLID_436_" class="st41" d="M12.8,484.7c-0.4,0-0.9,0.2-1.1,0.5c-0.1,0.3,0.1,0.5,0.6,0.5c0.4,0,0.9-0.2,1.1-0.5
			C13.5,484.9,13.3,484.7,12.8,484.7z"/>
		<path id="XMLID_437_" class="st41" d="M44.4,484.7c-0.4,0-0.9,0.2-1,0.5c-0.1,0.3,0.1,0.5,0.6,0.5c0.4,0,0.9-0.2,1-0.5
			C45.1,484.9,44.8,484.7,44.4,484.7z"/>
		<polygon id="XMLID_438_" class="st41" points="55.2,470.3 52.8,476.1 51.8,478.6 50,483.1 49.8,483.6 56,483.6 56.7,481.7 
			57.5,479.7 58,478.6 59,476 61.3,470.3 55.2,470.3 		"/>
		<path id="XMLID_439_" class="st41" d="M59.4,485.4c0-0.1,0.1-0.2,0.1-0.4c0,0-0.1,0.1-0.1,0.1C59.4,485.3,59.4,485.4,59.4,485.4z"
			/>
		<path id="XMLID_440_" class="st41" d="M73.3,481.5l1.8-4.8l2.5-6.5h-0.6h-2.8c-1.8,3.7-4.1,8.3-6.5,12.4c-0.1,0.3-0.3,0.6-0.4,0.9
			h5.2L73.3,481.5z"/>
		<path id="XMLID_441_" class="st41" d="M77.1,484.7c-0.4,0-0.9,0.2-1,0.5c-0.1,0.3,0.2,0.5,0.6,0.5s0.9-0.2,1-0.5
			C77.8,484.9,77.6,484.7,77.1,484.7z"/>
		<path id="XMLID_442_" class="st41" d="M882.1,485.8c0.4,0,0.7-0.2,0.6-0.5c-0.1-0.3-0.6-0.5-1-0.5c-0.4,0-0.7,0.2-0.6,0.5
			C881.2,485.5,881.7,485.8,882.1,485.8z"/>
		<path id="XMLID_443_" class="st41" d="M818.3,485.8c0.4,0,0.7-0.2,0.6-0.5c-0.1-0.3-0.6-0.5-1-0.5c-0.4,0-0.7,0.2-0.6,0.5
			C817.4,485.5,817.9,485.8,818.3,485.8z"/>
		<path id="XMLID_444_" class="st41" d="M757.7,510.5l1.5,17.6l-0.1-1.7C759.1,526.4,758.1,515.7,757.7,510.5z"/>
		<polygon id="XMLID_468_" class="st41" points="820.6,478.6 821,479.7 821.8,481.7 822.5,483.6 828.7,483.6 828.4,483.1 
			826.7,478.6 825.8,476.1 823.6,470.3 823.5,470.3 817.5,470.3 819.6,476 		"/>
		<polygon id="XMLID_469_" class="st41" points="760.9,470.3 754.8,470.3 754.8,470.3 756.6,476.1 757.2,478.2 763.4,478.2 
			762.7,476 		"/>
		<path id="XMLID_470_" class="st41" d="M741.3,474.8l0.5,1.6c0.2,0.2,0.3,0.3,0.5,0.5c0.9,0.8,1.6,1.7,2.3,2.5
			c0-0.1-0.1-0.1-0.1-0.2h2.6c-0.1-0.1-0.1-0.1-0.2-0.2c-0.3-0.4,0-0.7,0.5-0.8l-0.4-1.4l-1.4-4.7l-0.6-1.9h-2.8h-1.9H740l1,3.3
			L741.3,474.8z"/>
		<polygon id="XMLID_471_" class="st41" points="734.9,511.8 739,526.7 757.1,526.7 755.8,511.8 		"/>
		<polygon id="XMLID_472_" class="st41" points="724.4,511.8 731.5,526.7 733.6,526.7 729.5,511.8 		"/>
		<path id="XMLID_473_" class="st41" d="M798.1,489.1H798l-0.6-1.8c-0.3-0.6-0.5-1.2-0.8-1.7c-0.3-0.7-0.6-1.3-0.9-2
			c-0.2-0.4-0.4-0.7-0.6-1.1c-0.7,1-1.8,1.9-3.1,2.5l0.5,1.5l0.9,2.5H793l-0.6,1.2l-0.3,0.5l2,6c2.2-0.4,4.4-0.7,6.8-0.8
			c-0.6-1.4-1.1-2.8-1.7-4.2C798.9,491,798.5,490,798.1,489.1z"/>
		<path id="XMLID_474_" class="st41" d="M875.5,501.6c-1.3-2.6-2.6-5.2-3.9-7.8c-0.3-0.6-0.6-1.2-0.9-1.7l-1,2.4l-6-4.7l-0.8-0.6
			h-0.4l-1-2.5h-6.8l1,2.5h-0.4l-0.4,0.9c2,6.6,4,14.1,5.6,21c0.6,1.9,1.2,3.7,1.8,5.7c4.6-2.9,10.8-4.7,18.1-5.1
			c-0.3-0.7-0.7-1.4-1-2C878.1,506.9,876.8,504.3,875.5,501.6z"/>
		<path id="XMLID_475_" class="st41" d="M860.2,483.6L860,483l-0.8-2l-0.8-2l-1.2-3l-2.4-5.7h-6.1h-0.5c0.2,0.5,0.5,1.1,0.7,1.7
			c0.4,1.1,1,2.5,1.6,4.2l0.2,0.6l1.9,4.8l0.8,2.1h5.4H860.2z"/>
		<polygon id="XMLID_476_" class="st41" points="811.3,483.6 812.6,483.6 812.4,483 811.7,481 810.9,479 809.8,476 807.7,470.3 
			801.7,470.3 801.1,470.3 803.4,476.8 805.1,481.5 805.9,483.6 		"/>
		<path id="XMLID_477_" class="st41" d="M715,518.7c-1.4-2.8-2.9-5.5-4.3-8.2h-0.4c-1,0-2-0.9-2.2-1.9l-0.4-1.4l-1.4-5.7
			c0,0,0,0,0,0c-0.1-0.5,0.6-0.7,1.2-0.4c0.3,0.2,0.7,0.3,1,0.4l-0.5-2.1c0.1,0,0.2,0.1,0.3,0.1c-1-0.5-2-0.9-2.9-1.4
			c-3.7-2.1-6.8-4.7-8.9-7.6l-2,3.2l-0.5,0.8l-1.3-1.2l-4.5-4.1h-0.4l-0.6-2.5H681c0.2,2.6,0.5,5.2,0.6,7.7c0.2,1.4,0.4,2.7,0.6,4.1
			c0.4,3,0.8,6.1,1.4,9.2c0.5,3.1,1.1,6.3,1.6,9.4c0.1,0.8,0.3,1.6,0.4,2.4c11.8,0.6,23.3,4.2,32.5,9.7c0.2-0.6,0.9-1,1.8-1.1
			c-0.8-1.5-1.5-2.9-2.3-4.4C716.8,522,715.9,520.4,715,518.7z"/>
		<path id="XMLID_478_" class="st41" d="M866,485.8c0.4,0,0.7-0.2,0.6-0.5c-0.1-0.3-0.6-0.5-1-0.5c-0.4,0-0.7,0.2-0.6,0.5
			C865.1,485.5,865.6,485.8,866,485.8z"/>
		<path id="XMLID_479_" class="st41" d="M831.2,489.1h-0.4l-0.2-0.5l-0.8-2H827h-3.4l0.9,2.5h-0.4l-0.1,0.2l-2.5,5.1l-5.7-4.7
			l-0.8-0.6h-0.4l-0.9-2.5H807l0.9,2.5h-0.4l-1.8,3.7c0.3,1.1,0.6,2.2,1,3.2c13.9,0.6,27.6,5.9,37.2,13.6
			c-3.3-5.9-6.5-12.1-9.4-17.9L831.2,489.1z"/>
		<path id="XMLID_480_" class="st41" d="M662.6,478.6l1,4.5l0.1,0.6h3.1c-1.8-5.2-3.3-10.1-4.2-13.4h-1.8h0l1.3,5.8L662.6,478.6z"/>
		<path id="XMLID_481_" class="st41" d="M408.2,484.7c-0.4,0-0.8,0.2-0.8,0.5c0,0.3,0.3,0.5,0.8,0.5c0.4,0,0.8-0.2,0.8-0.5
			C409,484.9,408.7,484.7,408.2,484.7z"/>
		<polygon id="XMLID_482_" class="st41" points="399.2,519.9 414.2,519.9 399.2,519.9 		"/>
		<path id="XMLID_483_" class="st41" d="M644.2,485.7c0.4,0,0.8-0.2,0.7-0.5c-0.1-0.3-0.5-0.5-0.9-0.5c-0.4,0-0.8,0.2-0.7,0.5
			C643.4,485.5,643.8,485.7,644.2,485.7z"/>
		<path id="XMLID_484_" class="st41" d="M686.5,483.6l-0.5-2.1l-1.1-4.8l-1.5-6.5h-0.6h-3.9c0.6,3.3,1.3,8.1,1.8,13.4h0.3H686.5z"/>
		<polygon id="XMLID_485_" class="st41" points="631.3,479 631.6,481 632,483 632.1,483.6 633.4,483.6 638.9,483.6 638.5,481.5 
			637.6,476.8 636.3,470.3 635.8,470.3 629.7,470.3 630.7,476 		"/>
		<path id="XMLID_486_" class="st41" d="M694.1,474.8l0.5,2.2c0.9-1.8,2.2-3.4,3.9-4.7l0-0.1l-0.5-1.9h-2.8h-1.9H693l0.8,3.3
			L694.1,474.8z"/>
		<path id="XMLID_487_" class="st41" d="M691.9,485.7c0.4,0,0.8-0.2,0.7-0.5c-0.1-0.3-0.5-0.5-0.9-0.5c-0.4,0-0.8,0.2-0.7,0.5
			C691.1,485.5,691.5,485.7,691.9,485.7z"/>
		<path id="XMLID_488_" class="st41" d="M659.2,485.8c0.4,0,0.8-0.2,0.7-0.5c-0.1-0.3-0.5-0.5-0.9-0.5c-0.4,0-0.8,0.2-0.7,0.5
			C658.3,485.5,658.7,485.8,659.2,485.8z"/>
		<path id="XMLID_489_" class="st41" d="M602.7,479.2l2.2,14.6l0.1,0.7l0.4,2.9c3.1-0.7,6.3-1.2,9.8-1.4c-0.3-1.3-0.6-2.5-0.9-3.8
			l-1.5,2.2l-1.4-1.4l-4-4h-0.4l-0.6-3.9l-1.3-8.4l-0.7-4.7l-0.3-1.9h-2.8l1.2,8.2L602.7,479.2z"/>
		<path id="XMLID_491_" class="st41" d="M627.6,485.8c0.4,0,0.8-0.2,0.7-0.5c-0.1-0.3-0.5-0.5-0.9-0.5c-0.4,0-0.8,0.2-0.7,0.5
			C626.7,485.5,627.1,485.8,627.6,485.8z"/>
		<path id="XMLID_492_" class="st41" d="M674.9,507.7c-0.9-3.1-1.8-6.2-2.8-9.2c-0.3-1-0.6-1.9-0.9-2.9c-1.2-2.9-2.3-6-3.4-9h-0.7
			h-2.8l0.4,2l0.1,0.5h-0.4l-3.4,5.3l-1.5-1.4l-4.2-4H655l-0.8-3.9l-1.7-8.4l-1-4.7l-0.4-1.9h-2.8h-1.9h-0.4l0.7,3.3l0.2,1.2
			l1.4,7.1l0.9,4.7l0.5,2.5h-0.4l-0.8,1.2l-2.1,3.2l-0.6,0.8l-1.3-1.2l-4.3-4.1h-0.4l-0.5-2.5h-6.8l0.5,2.5h-0.4l-0.4,0.6l-3.2,4.7
			l-5.3-5.1l-0.2-0.2h-0.4l-0.4-2.5h-2.9c0.1,1.7,0.3,3.5,0.5,5.3c0.2,1.4,0.3,2.8,0.5,4.2c15.3,0.7,29.5,7.1,37.4,16.3l14.7,5
			l-1.5,2.8c2.2-0.4,4.5-0.6,6.8-0.8c-0.2-0.8-0.5-1.6-0.7-2.4C676.7,513.9,675.8,510.8,674.9,507.7z"/>
		<path id="XMLID_493_" class="st41" d="M611.5,485.8c0.4,0,0.8-0.2,0.7-0.5c0-0.3-0.5-0.5-0.9-0.5c-0.4,0-0.8,0.2-0.7,0.5
			C610.6,485.5,611,485.8,611.5,485.8z"/>
		<path id="XMLID_494_" class="st41" d="M619.6,482.7c0,0.3,0.1,0.6,0.1,0.9h2.6l-0.3-1.9l-0.3-2l-0.2-1.1L621,476l-1-5.7h-0.9
			C619.4,474,619.6,478.6,619.6,482.7z"/>
		<linearGradient id="XMLID_323_" gradientUnits="userSpaceOnUse" x1="469.6173" y1="411.9038" x2="469.6173" y2="614.26">
			<stop  offset="0" style="stop-color:#000000"/>
			<stop  offset="8.962709e-02" style="stop-color:#000000;stop-opacity:0.9104"/>
			<stop  offset="1" style="stop-color:#000000;stop-opacity:0"/>
		</linearGradient>
		<path id="XMLID_497_" class="st42" d="M886.6,511.6c-0.2-0.7-0.5-1.3-0.7-2c-1-2.6-2-5.3-2.9-7.9c-1-2.6-1.9-5.2-2.7-7.8
			c-0.4-1.2-0.8-2.4-1.2-3.5c-0.1-0.4-0.2-0.8-0.3-1.2h0.3l6.9,5.3l0.6-1.4l1.6-4h0.4l-1.7-3.9l-3.7-8.4l-2-4.7l-0.8-1.9l-1.4-3.1
			h-6.4h-1h-9.6h-4.4h-3.4h-7.7H844h-6.4h-2.8h-9.2h-1.8h-8.9h-7.7h-8.2h-2h-6.4h-2.7H788h-0.2h-2.6h-6.4h-10.1h-7.7h-10.6h-9.2
			h-2.8h-6.4H722h-7.7h-10.6h-9.2h-2.8h-6.4h-7.1h-3h-7.7h-5.6h-5h-9.2h-2.8h-6.4h-10.1h-7.7h-1.8H610h-2.5h-6.6l0-0.1H591h-39.9
			h-85.2H426H416l0,0.1h-2.8h-6.4h-10.1h-7.7h-10.6h-9.2h-2.8h-6.4h-10.1h-7.7h-4.5h-6.1h-9.2h-2.2h-0.6H314l0-0.1h-21.7l0,0.1h-7.5
			h-9.2l-0.6,3.1h2.8l-0.3,1.9l-0.8,4.7l-1.5,8.4l-0.7,3.9h0.4l2.7,4l0.9,1.4l5.5-5.3h0.4l0.1-0.5l0.3-2h2.8h2l-4.6,33.3h-4l0,0h-15
			l0.7-3.6l1.1-5.9l0.1-0.4l2.8-15.5l0.1-0.7l2.7-14.6l0.1-0.7l2.1-11.4h-9.9h-39.9h-85.2h-39.9h-9.9l0,0.1H88h-6.4h-5.9h-4.3h-7
			h-0.7H53.2H44h-2.8h-6.4H24.7H17H6.4H0v21.3l0.8-1.8h2.8H7l-1.1,2.5h0.4l0.1,0.2l2.1,5.1l6.1-4.7l0.8-0.6h0.4l1.1-2.5h6.8
			l-1.1,2.5H23l1.7,4.1l0.5,1.2l1.1-0.8l4.2-3.2l1.6-1.2h0.4l1.1-2.5l2-4.7l3-7.1l0.5-1.2l1.4-3.3h0.4h1.9h2.8l-0.8,1.9l-1.9,4.7
			l-3.5,8.4l-1.6,3.9H38l1.7,4l0.6,1.4l6.7-5.3h0.4l0.2-0.5l0.8-2h2.8h3.4l-1,2.5h0.4l0.1,0.2l2.3,5.1c-0.2,0.6-0.4,1.1-0.6,1.7
			c-17.4,0.8-35.1,9-44.5,20.1l-3.7,1.2l0.7,2.1l0.2,0.6c-0.8,1.3-1.6,2.7-2.2,4.1c-5,11.5,0.3,21.7,12.2,26.7l9.5,29.1l7.9,24
			h218.6l21.5-24.5c0.1,0.2,0.2,0.4,0.3,0.6l-3.3,23.9h17.9l1.8-10.8c5.8,2.3,12.5,3.7,19.9,3.7c4.2,0,8.4-0.4,12.3-1.3l10.4,8.4
			h15.9l-17.9-7.8l-4-1.7c17-4.9,29.6-16.7,30.8-30.2c1.4-16.3-14.7-29.4-36.3-30.6c0-0.3,0.1-0.5,0.1-0.8c0.6-3.3,1.3-6.7,1.9-10.1
			c0-0.1,0-0.2,0.1-0.3l4.5-5.2l-3.4-1.3c0.2-1.2,0.4-2.3,0.6-3.5c0.6-3.4,1.3-6.7,2-10c0.3-1.5,0.6-3,0.9-4.5
			c1.1-3.7,2.2-7.7,3.1-11.5h1.4h3.4l-0.3,2.5h0.4l0.2,0.2l3.8,5.1l4.5-4.7l0.6-0.6h0.4l0.3-2.5h6.8l-0.2,2.5h0.4l3.1,4.1l0.9,1.2
			l0.8-0.8l3.1-3.2l1.2-1.2h0.4l0.2-2.5l0.4-4.7l0.6-7.1l0.1-1.2l0.3-3.3h0.4h1.9h2.8l-0.2,1.9l-0.4,4.7l-0.7,8.4l-0.3,3.9h0.4
			l3.1,4l1.1,1.4l5-5.3h0.4l0-0.5l0.1-2h2.8h3.4l-0.2,2.5h0.4l0.2,0.2l4,5.1l4.3-4.7l0.6-0.6h0.4l0.1-2.5h6.7l-0.1,2.5h0.4l3.3,4.1
			l1,1.2l0.8-0.8l2.9-3.2l1.1-1.2h0.4l0.1-2.5l0.2-4.7l0.3-7.1l0-1.2l0.1-3.3h0.4h1.8l-0.3,8.2l0,0.7l-0.5,14.6l0,0.7l-0.5,14.1
			l0,1.2l0,0.5l-0.3,9.5h0l0,0h-15h-6.7h-7.3h-6.6l-7-10.1l-21.7,7.7l1.4,2.1l40,60.4l15.9,24h218.6l17-31.2l3.6-6.6
			c9.7,13.7,29.9,23.6,51.5,23.6c27.9,0,46-16.6,40.7-36.3c-2.3-8.3-8.3-15.8-16.5-21.6h0.6c4.2,0,8.5,0,12.7,0c1.3,0,2.5,0,3.8,0
			c2.6,0,5.2,0,7.8,0c1.3,0,2.6,0,3.8,0c1.8,0,3.6,0,5.4,0c2.1,0,4.2,0,6.3,0h2.6c1.3,0,2.2-0.8,1.9-1.7l-0.1-0.2
			c-0.3-0.9-1.5-1.7-2.8-1.7h0.1c0,0-0.1,0-0.1,0h-0.9c-0.2-4.7-0.4-9.4-0.5-14c0-1.2-0.1-2.3-0.1-3.5h7.5h0.5h2.6
			c-1.9,4-2.3,8.7-0.7,13.7c5.1,16.2,28.4,29.8,51.9,29.8c14.8,0,25.8-5.4,30.3-13.5c1.9,4.7,5.3,9.2,9.8,13.3
			c0.9,1.9,1.7,3.7,2.6,5.6c2.1,4.6,4.2,9.2,6.2,13.5c1.4,2.9,2.7,5.8,4,8.5c-16.5,1.1-27,10.3-26.3,22.6h77.4
			c-9.1-12.4-27.1-21.7-44.6-22.7c-0.9-2.7-1.8-5.6-2.8-8.5c-1.1-3.3-2.2-6.7-3.3-10.1c9.3,4.7,20.2,7.6,30.9,7.6
			c23.5,0,36.1-13.7,28.5-30.2C929.9,524.8,907.9,512.6,886.6,511.6z M881.7,484.7c0.4,0,0.9,0.2,1,0.5c0.1,0.3-0.1,0.5-0.6,0.5
			c-0.4,0-0.9-0.2-1-0.5C881,484.9,881.2,484.7,881.7,484.7z M280,485.8c-0.4,0-0.8-0.2-0.7-0.5c0.1-0.3,0.5-0.5,0.9-0.5
			s0.8,0.2,0.7,0.5C280.9,485.5,280.5,485.8,280,485.8z M13.4,485.2c-0.1,0.3-0.6,0.5-1.1,0.5c-0.4,0-0.7-0.2-0.6-0.5
			c0.1-0.3,0.6-0.5,1.1-0.5C13.3,484.7,13.5,484.9,13.4,485.2z M11.8,476l-1.2,2.6l-0.5,1.1l-0.9,2l-0.9,1.9H2.2l0.3-0.6l2-4.5
			l1.1-2.5l2.7-5.8h0h6.1L11.8,476z M30,485.2c-0.1,0.3-0.6,0.5-1,0.5c-0.4,0-0.7-0.2-0.6-0.5c0.1-0.3,0.6-0.5,1-0.5
			S30.2,484.9,30,485.2z M27.9,476.8l-2.1,4.8l-0.9,2.1h-5.4h-1.3l0.3-0.6l0.9-2l0.9-2l1.3-3l2.5-5.7h6.1h0.6L27.9,476.8z M45,485.2
			c-0.1,0.3-0.6,0.5-1,0.5c-0.4,0-0.7-0.2-0.6-0.5c0.1-0.3,0.6-0.5,1-0.5S45.1,484.9,45,485.2z M67.8,482.7
			c2.3-4.1,4.7-8.7,6.5-12.4h2.8h0.6l-2.5,6.5l-1.8,4.8l-0.8,2.1h-5.2C67.5,483.3,67.7,483,67.8,482.7z M77.7,485.2
			c-0.1,0.3-0.6,0.5-1,0.5s-0.7-0.2-0.6-0.5c0.1-0.3,0.6-0.5,1-0.5C77.6,484.7,77.8,484.9,77.7,485.2z M59.4,485.4
			c0-0.1,0-0.1,0-0.2c0,0,0.1-0.1,0.1-0.1C59.5,485.2,59.5,485.3,59.4,485.4z M59,476l-1.1,2.6l-0.4,1.1l-0.8,2l-0.8,1.9h-6.2
			l0.2-0.6l1.8-4.5l1-2.5l2.4-5.8h0h6.1L59,476z M86.6,478.5l-0.3,0.7L81,493.8l-0.3,0.7l-2.1,5.6c-4.6-2.3-10.4-3.8-17-4.1
			c0.6-1.4,1.3-2.8,1.9-4.2c0.8-1.8,1.6-3.5,2.5-5.3h5.5l-1,2.5h0.4l1.9,4.1l0.6,1.2l1-0.8l4-3.2l1.5-1.2h0.4l0.9-2.5l1.8-4.7
			l2.7-7.1l0.5-1.2l1.2-3.3h0.4h1.8L86.6,478.5z M290,483.6h-4.7l0.1-0.6l0.7-4.5l0.4-2.5l1-5.8h0h4.3L290,483.6z M312.9,484.7
			c0.4,0,0.8,0.2,0.7,0.5c0,0.3-0.4,0.5-0.9,0.5c-0.4,0-0.8-0.2-0.7-0.5C312.1,484.9,312.5,484.7,312.9,484.7z M319.3,499.5
			c0,1-0.1,2.1-0.1,3.1c-0.1,3.3-0.2,6.6-0.5,10c0,0,0,0.1,0,0.1l-4.3-1.6l-3.6-1.4L306,515l3.8-22.9l0.8,1.1l0.9,1.2l0.8-0.8
			l3.2-3.2l1.2-1.2h0.4l0.3-2.5l0.6-4.7l1-7.1l0.2-1.2l0.4-3.3h0C319.2,475.8,318.7,488.9,319.3,499.5z M340,476l-0.3,2.6l-0.1,1.1
			l-0.2,2l-0.2,1.9h-4.4c1.3-5.6,2.3-10.5,2.7-13.4h3.2L340,476z M343.8,485.8c-0.4,0-0.8-0.2-0.8-0.5c0-0.3,0.4-0.5,0.9-0.5
			c0.4,0,0.8,0.2,0.8,0.5C344.7,485.5,344.3,485.8,343.8,485.8z M356.4,476.8l-0.5,4.8l-0.2,2.1h-5.4H349l0.1-0.6l0.2-2l0.2-2l0.3-3
			l0.6-5.7h6.1h0.6L356.4,476.8z M360.5,485.7c-0.4,0-0.8-0.2-0.8-0.5c0-0.3,0.4-0.5,0.9-0.5c0.4,0,0.8,0.2,0.8,0.5
			C361.3,485.5,360.9,485.7,360.5,485.7z M375.4,485.8c-0.4,0-0.8-0.2-0.8-0.5c0-0.3,0.4-0.5,0.9-0.5c0.4,0,0.8,0.2,0.8,0.5
			C376.3,485.5,375.9,485.8,375.4,485.8z M387.2,476l-0.2,2.6l-0.1,1.1l-0.1,2l-0.1,1.9h-6.2l0-0.6l0.3-4.5l0.2-2.5l0.4-5.8h0h6.1
			L387.2,476z M391.5,485.8c-0.4,0-0.8-0.2-0.8-0.5c0-0.3,0.4-0.5,0.8-0.5c0.4,0,0.8,0.2,0.8,0.5C392.4,485.5,392,485.8,391.5,485.8
			z M403.7,476.8l-0.2,4.8l-0.1,2.1h-5.4h-1.3l0-0.6l0.1-2l0.1-2l0.2-3l0.3-5.7h6.1h0.6L403.7,476.8z M408.2,485.7
			c-0.4,0-0.8-0.2-0.8-0.5c0-0.3,0.4-0.5,0.8-0.5s0.8,0.2,0.8,0.5C409,485.5,408.6,485.7,408.2,485.7z M399.2,519.9L399.2,519.9
			l15,0L399.2,519.9z M693.4,470.3h1.9h2.8l0.5,1.9l0,0.1c-1.7,1.4-3,3-3.9,4.7l-0.5-2.2l-0.3-1.2l-0.8-3.3H693.4z M691.7,484.7
			c0.4,0,0.9,0.2,0.9,0.5c0.1,0.3-0.2,0.5-0.7,0.5c-0.4,0-0.9-0.2-0.9-0.5C690.9,484.9,691.2,484.7,691.7,484.7z M660.9,470.3h1.8
			c0.9,3.3,2.4,8.1,4.2,13.4h-3.1l-0.1-0.6l-1-4.5l-0.5-2.5L660.9,470.3L660.9,470.3z M659,484.7c0.4,0,0.9,0.2,0.9,0.5
			c0.1,0.3-0.2,0.5-0.7,0.5c-0.4,0-0.9-0.2-0.9-0.5C658.2,484.9,658.5,484.7,659,484.7z M644,484.7c0.4,0,0.9,0.2,0.9,0.5
			c0.1,0.3-0.3,0.5-0.7,0.5c-0.4,0-0.9-0.2-0.9-0.5C643.2,484.9,643.6,484.7,644,484.7z M635.8,470.3h0.6l1.2,6.5l0.9,4.8l0.4,2.1
			h-5.4h-1.3L632,483l-0.4-2l-0.4-2l-0.5-3l-1-5.7H635.8z M627.4,484.7c0.4,0,0.9,0.2,0.9,0.5c0.1,0.3-0.3,0.5-0.7,0.5
			c-0.4,0-0.9-0.2-0.9-0.5C626.6,484.9,626.9,484.7,627.4,484.7z M620,470.3l1,5.7l0.5,2.6l0.2,1.1l0.3,2l0.3,1.9h-2.6
			c0-0.3,0-0.6-0.1-0.9c0-4.1-0.2-8.7-0.5-12.4H620z M611.3,484.7c0.4,0,0.8,0.2,0.9,0.5c0,0.3-0.3,0.5-0.7,0.5
			c-0.4,0-0.9-0.2-0.9-0.5C610.5,484.9,610.9,484.7,611.3,484.7z M604.1,470.3l0.3,1.9l0.7,4.7l1.3,8.4l0.6,3.9h0.4l4,4l1.4,1.4
			l1.5-2.2c0.3,1.3,0.6,2.5,0.9,3.8c-3.5,0.2-6.7,0.6-9.8,1.4l-0.4-2.9l-0.1-0.7l-2.2-14.6l-0.1-0.7l-1.2-8.2H604.1z M671.4,520.2
			l1.5-2.8l-14.7-5c-7.9-9.2-22-15.7-37.4-16.3c-0.2-1.4-0.3-2.8-0.5-4.2c-0.2-1.8-0.3-3.5-0.5-5.3h2.9l0.4,2.5h0.4l0.2,0.2l5.3,5.1
			l3.2-4.7l0.4-0.6h0.4l-0.5-2.5h6.8l0.5,2.5h0.4l4.3,4.1l1.3,1.2l0.6-0.8l2.1-3.2l0.8-1.2h0.4l-0.5-2.5l-0.9-4.7l-1.4-7.1l-0.2-1.2
			l-0.7-3.3h0.4h1.9h2.8l0.4,1.9l1,4.7l1.7,8.4l0.8,3.9h0.4l4.2,4l1.5,1.4l3.4-5.3h0.4l-0.1-0.5l-0.4-2h2.8h0.7c1.1,3,2.2,6.1,3.4,9
			c0.3,0.9,0.6,1.9,0.9,2.9c1,3,1.9,6.1,2.8,9.2c0.9,3.1,1.8,6.3,2.6,9.4c0.2,0.8,0.5,1.6,0.7,2.4
			C675.9,519.6,673.6,519.8,671.4,520.2z M678.9,470.3h3.9h0.6l1.5,6.5l1.1,4.8l0.5,2.1H681h-0.3
			C680.1,478.4,679.5,473.5,678.9,470.3z M718.1,529.1c-9.2-5.5-20.7-9.1-32.5-9.7c-0.1-0.8-0.3-1.6-0.4-2.4
			c-0.5-3.1-1.1-6.3-1.6-9.4c-0.5-3.1-1-6.2-1.4-9.2c-0.2-1.4-0.4-2.8-0.6-4.1c-0.1-2.5-0.3-5.1-0.6-7.7h6.2l0.6,2.5h0.4l4.5,4.1
			l1.3,1.2l0.5-0.8l2-3.2c2.1,2.9,5.2,5.5,8.9,7.6c0.9,0.5,1.9,1,2.9,1.4c-0.1,0-0.2-0.1-0.3-0.1l0.5,2.1c-0.3-0.1-0.7-0.3-1-0.4
			c-0.6-0.3-1.4,0-1.2,0.4c0,0,0,0,0,0l1.4,5.7l0.4,1.4c0.3,1.1,1.3,1.9,2.2,1.9h0.4c1.4,2.7,2.9,5.5,4.3,8.2c0.9,1.7,1.7,3.3,2.6,5
			c0.8,1.4,1.5,2.9,2.3,4.4C719,528.1,718.3,528.5,718.1,529.1z M740.4,470.3h1.9h2.8l0.6,1.9l1.4,4.7l0.4,1.4
			c-0.5,0-0.8,0.4-0.5,0.8c0.1,0.1,0.1,0.1,0.2,0.2h-2.6c0,0.1,0.1,0.1,0.1,0.2c-0.7-0.9-1.5-1.7-2.3-2.5c-0.2-0.2-0.3-0.3-0.5-0.5
			l-0.5-1.6l-0.4-1.2l-1-3.3H740.4z M731.5,526.7l-7.1-14.8h5.1l4.1,14.8H731.5z M739,526.7l-4.1-14.8h20.9l1.2,14.8H739z
			 M757.7,510.5c0.5,5.2,1.4,15.9,1.4,15.9l0.1,1.7L757.7,510.5z M757.2,478.2l-0.6-2.1l-1.8-5.8h0h6.1l1.8,5.7l0.7,2.2H757.2z
			 M823.5,470.3L823.5,470.3l2.3,5.8l0.9,2.5l1.7,4.5l0.2,0.6h-6.2l-0.7-1.9l-0.7-2l-0.4-1.1l-1-2.6l-2.1-5.7H823.5z M817.9,484.7
			c0.4,0,0.9,0.2,1,0.5c0.1,0.3-0.2,0.5-0.6,0.5c-0.4,0-0.9-0.2-1-0.5C817.2,484.9,817.5,484.7,817.9,484.7z M794.2,496.9l-2-6
			l0.3-0.5l0.6-1.2h0.4l-0.9-2.5l-0.5-1.5c1.3-0.7,2.4-1.5,3.1-2.5c0.2,0.4,0.4,0.7,0.6,1.1c0.3,0.7,0.6,1.3,0.9,2
			c0.3,0.6,0.5,1.2,0.8,1.7l0.6,1.8h0.2c0.4,0.9,0.8,1.8,1.2,2.8c0.6,1.4,1.1,2.8,1.7,4.2C798.6,496.2,796.3,496.5,794.2,496.9z
			 M803.4,476.8l-2.3-6.5h0.6h6.1l2.1,5.7l1.1,3l0.7,2l0.7,2l0.2,0.6h-1.3h-5.4l-0.7-2.1L803.4,476.8z M806.6,496.1
			c-0.3-1.1-0.6-2.2-1-3.2l1.8-3.7h0.4l-0.9-2.5h6.8l0.9,2.5h0.4l0.8,0.6l5.7,4.7l2.5-5.1l0.1-0.2h0.4l-0.9-2.5h3.4h2.8l0.8,2
			l0.2,0.5h0.4l3.3,2.6c2.9,5.7,6.1,12,9.4,17.9C834.2,501.9,820.4,496.7,806.6,496.1z M865.6,484.7c0.4,0,0.9,0.2,1,0.5
			c0.1,0.3-0.1,0.5-0.6,0.5c-0.4,0-0.9-0.2-1-0.5C864.9,484.9,865.1,484.7,865.6,484.7z M853.5,483.6l-0.8-2.1l-1.9-4.8l-0.2-0.6
			c-0.6-1.7-1.1-3.1-1.6-4.2c-0.2-0.6-0.5-1.2-0.7-1.7h0.5h6.1l2.4,5.7l1.2,3l0.8,2l0.8,2l0.3,0.6h-1.3H853.5z M862.3,516.7
			c-0.6-1.9-1.2-3.8-1.8-5.7c-1.6-6.9-3.6-14.3-5.6-21l0.4-0.9h0.4l-1-2.5h6.8l1,2.5h0.4l0.8,0.6l6,4.7l1-2.4
			c0.3,0.6,0.6,1.2,0.9,1.7c1.3,2.6,2.7,5.2,3.9,7.8c1.3,2.6,2.6,5.3,3.8,7.9c0.3,0.7,0.7,1.4,1,2C873,512,866.9,513.8,862.3,516.7z
			"/>
	</g>
</g>
</svg>
