<?xml version="1.0" encoding="utf-8"?>
<!-- Generator: Adobe Illustrator 19.0.0, SVG Export Plug-In . SVG Version: 6.00 Build 0)  -->
<svg version="1.1" id="Layer_1" xmlns="http://www.w3.org/2000/svg" xmlns:xlink="http://www.w3.org/1999/xlink" x="0px" y="0px"
	 viewBox="0 0 150 150" style="enable-background:new 0 0 150 150;" xml:space="preserve">
<style type="text/css">
	.st0{fill:#8BC543;stroke:#006738;stroke-width:6.3803;stroke-miterlimit:10;}
	.st1{fill:#006738;}
	.st2{fill:#8BC543;}
</style>
<g>
	<g>
		
			<rect id="XMLID_33_" x="17.4" y="41.9" transform="matrix(0.8587 -0.5124 0.5124 0.8587 -24.5574 45.4042)" class="st0" width="105.3" height="50.6"/>
		<circle id="XMLID_32_" class="st1" cx="70.1" cy="67.2" r="20.3"/>
		<path id="XMLID_31_" class="st1" d="M11.9,72.5L18.8,84c6.4-3.8,8.5-12.1,4.7-18.4L11.9,72.5z"/>
		<g>
			<g>
				<path class="st2" d="M70.9,60.4c-0.9-1.3-2.5-1.2-4.9,0.2c-2.3,1.4-3.1,2.7-2.4,4c0.5,0.8,1.2,1.1,2.1,1c1-0.1,2.7-0.6,5.3-1.5
					c2.5-0.9,4.7-1.2,6.3-0.8c1.7,0.4,3,1.4,4,3c1.1,1.9,1.2,3.9,0.1,6c-1.1,2.1-2.7,3.8-5,5.1c-5.3,3.2-9.6,3-12.8-0.7l4.2-3
					c1.6,2,3.8,2.1,6.7,0.4c2.7-1.6,3.4-3.3,2.4-5.1c-0.5-0.8-1.2-1.2-2-1.2c-0.9,0-2.6,0.5-5.3,1.4c-2.7,1-4.8,1.3-6.4,0.9
					c-1.6-0.3-2.9-1.2-3.7-2.6c-0.9-1.5-1-3.2-0.3-5.1c0.7-1.9,2.4-3.6,5-5.1c5.1-3.1,8.8-3,11.1,0.3L70.9,60.4z"/>
			</g>
			
				<rect id="XMLID_29_" x="61" y="53.4" transform="matrix(0.8587 -0.5125 0.5125 0.8587 -19.547 40.4071)" class="st2" width="4.9" height="4.5"/>
			
				<rect id="XMLID_28_" x="74.7" y="76.3" transform="matrix(0.8587 -0.5125 0.5125 0.8587 -29.3377 50.6304)" class="st2" width="4.9" height="4.5"/>
		</g>
		<path id="XMLID_27_" class="st1" d="M37.4,115.2l11.5-6.9c-3.8-6.4-12.1-8.5-18.4-4.7L37.4,115.2z"/>
		<path id="XMLID_26_" class="st1" d="M127.8,61.3l-6.9-11.5c-6.4,3.8-8.5,12.1-4.7,18.4L127.8,61.3z"/>
		<path id="XMLID_25_" class="st1" d="M102.3,18.5l-11.5,6.9c3.8,6.4,12.1,8.5,18.4,4.7L102.3,18.5z"/>
		<circle id="XMLID_24_" class="st1" cx="41.1" cy="84.5" r="4.6"/>
		<circle id="XMLID_23_" class="st1" cx="99" cy="50" r="4.6"/>
	</g>
	<g>
		
			<rect id="XMLID_22_" x="23.7" y="55" transform="matrix(0.9246 -0.381 0.381 0.9246 -24.8311 35.1576)" class="st0" width="105.3" height="50.6"/>
		<circle id="XMLID_21_" class="st1" cx="76.4" cy="80.3" r="20.3"/>
		<path id="XMLID_20_" class="st1" d="M18.1,77l5.1,12.4c6.9-2.8,10.1-10.7,7.3-17.6L18.1,77z"/>
		<g>
			<g>
				<path class="st2" d="M78.3,73.6c-0.7-1.4-2.3-1.5-4.8-0.5c-2.5,1-3.5,2.2-3,3.6c0.3,0.8,1,1.3,2,1.3c1,0,2.8-0.2,5.4-0.8
					c2.7-0.5,4.8-0.5,6.4,0.1c1.6,0.6,2.8,1.8,3.5,3.6c0.8,2.1,0.6,4-0.8,5.9c-1.4,1.9-3.3,3.3-5.6,4.3c-5.8,2.4-9.9,1.5-12.6-2.6
					l4.6-2.3c1.3,2.2,3.5,2.6,6.5,1.4c2.9-1.2,3.9-2.7,3.1-4.7c-0.4-0.9-1-1.4-1.8-1.5c-0.9-0.1-2.7,0.1-5.4,0.6
					c-2.8,0.6-4.9,0.6-6.5,0c-1.6-0.6-2.7-1.6-3.3-3.1c-0.7-1.6-0.5-3.3,0.5-5.1c1-1.7,2.9-3.2,5.7-4.3c5.5-2.3,9.2-1.6,11,1.9
					L78.3,73.6z"/>
			</g>
			
				<rect id="XMLID_18_" x="69.1" y="65.6" transform="matrix(0.9246 -0.3809 0.3809 0.9246 -20.4564 32.3868)" class="st2" width="4.9" height="4.5"/>
			
				<rect id="XMLID_17_" x="79.3" y="90.3" transform="matrix(0.9247 -0.3806 0.3806 0.9247 -29.0506 38.0674)" class="st2" width="4.9" height="4.5"/>
		</g>
		<path id="XMLID_16_" class="st1" d="M37,123l12.4-5.1c-2.8-6.9-10.7-10.1-17.6-7.3L37,123z"/>
		<path id="XMLID_15_" class="st1" d="M134.4,82.9l-5.1-12.4c-6.9,2.8-10.1,10.7-7.3,17.6L134.4,82.9z"/>
		<path id="XMLID_14_" class="st1" d="M115.4,36.9L103,42c2.8,6.9,10.7,10.1,17.6,7.3L115.4,36.9z"/>
		<circle id="XMLID_13_" class="st1" cx="45.2" cy="93.1" r="4.6"/>
		<path id="XMLID_12_" class="st1" d="M111.8,65.7c1,2.3-0.2,5-2.5,6c-2.3,1-5-0.1-6-2.5c-1-2.3,0.2-5,2.5-6
			C108.2,62.2,110.8,63.4,111.8,65.7z"/>
	</g>
	<g>
		
			<rect id="XMLID_11_" x="28.3" y="70.1" transform="matrix(0.9718 -0.236 0.236 0.9718 -20.2317 21.7854)" class="st0" width="105.3" height="50.6"/>
		<circle id="XMLID_10_" class="st1" cx="80.9" cy="95.4" r="20.3"/>
		<path id="XMLID_9_" class="st1" d="M23.8,83.3L27,96.3c7.2-1.8,11.6-9,9.9-16.2L23.8,83.3z"/>
		<g>
			<g>
				<path class="st2" d="M83.8,89.1c-0.5-1.5-2.1-1.9-4.7-1.2c-2.7,0.6-3.8,1.7-3.5,3.1c0.2,0.9,0.8,1.4,1.7,1.6
					c0.9,0.2,2.8,0.2,5.5,0.1c2.7-0.1,4.8,0.2,6.3,1.1c1.5,0.9,2.5,2.2,2.9,4.1c0.5,2.2,0,4.1-1.7,5.7c-1.6,1.7-3.7,2.8-6.2,3.4
					c-6,1.5-10.1,0-12-4.4l4.9-1.6c1,2.3,3,3.1,6.2,2.3c3-0.7,4.3-2.1,3.8-4.1c-0.2-0.9-0.7-1.5-1.6-1.7c-0.8-0.3-2.7-0.3-5.5-0.2
					c-2.8,0.1-5-0.2-6.4-1c-1.5-0.8-2.4-2-2.8-3.6c-0.4-1.7,0-3.4,1.2-4.9c1.2-1.6,3.3-2.7,6.3-3.4c5.8-1.4,9.3-0.2,10.5,3.6
					L83.8,89.1z"/>
			</g>
			
				<rect id="XMLID_7_" x="75.6" y="80.2" transform="matrix(0.9719 -0.2356 0.2356 0.9719 -17.2189 20.7089)" class="st2" width="4.9" height="4.5"/>
			<polygon id="XMLID_6_" class="st2" points="87.3,109.9 82.5,111 81.4,106.7 86.2,105.5 			"/>
		</g>
		<path id="XMLID_5_" class="st1" d="M35.5,131.6l13.1-3.2c-1.8-7.2-9-11.6-16.2-9.9L35.5,131.6z"/>
		<path id="XMLID_4_" class="st1" d="M137.8,106.8l-3.2-13.1c-7.2,1.8-11.6,9-9.9,16.2L137.8,106.8z"/>
		<path id="XMLID_3_" class="st1" d="M126.1,58.4L113,61.6c1.8,7.2,9,11.6,16.2,9.9L126.1,58.4z"/>
		<path id="XMLID_2_" class="st1" d="M52.6,102.3c0.6,2.5-0.9,4.9-3.4,5.5c-2.5,0.6-4.9-0.9-5.5-3.4c-0.6-2.5,0.9-4.9,3.4-5.5
			C49.5,98.3,52,99.8,52.6,102.3z"/>
		<circle id="XMLID_1_" class="st1" cx="113.7" cy="87.5" r="4.6"/>
	</g>
</g>
</svg>
