<?xml version="1.0" encoding="utf-8"?>
<!-- Generator: Adobe Illustrator 19.0.0, SVG Export Plug-In . SVG Version: 6.00 Build 0)  -->
<svg version="1.1" id="Layer_1" xmlns="http://www.w3.org/2000/svg" xmlns:xlink="http://www.w3.org/1999/xlink" x="0px" y="0px"
	 viewBox="0 0 350 350" style="enable-background:new 0 0 350 350;" xml:space="preserve">
<style type="text/css">
	.st0{display:none;}
	.st1{fill:#F0F0F0;}
	.st2{display:none;fill:#F19134;}
	.st3{display:none;fill:#FECDA6;}
	.st4{display:none;fill:#3DC5C4;}
	.st5{display:none;opacity:0.5;fill:#3DC5C4;enable-background:new    ;}
	.st6{fill:#F0E08A;}
	.st7{opacity:0.5;fill:#F0E08A;enable-background:new    ;}
	.st8{display:inline;}
	.st9{fill:#979797;}
	.st10{fill:#F19134;}
	.st11{fill:#26527B;}
	.st12{fill:#B7DD71;}
	.st13{fill:#3DC5C4;}
	.st14{fill:#8AC43F;}
	.st15{fill:#FFFFFF;}
	.st16{fill:#39B34A;}
</style>
<g>
	<g id="XMLID_3_">
		<path id="XMLID_25_" class="st0" d="M195.3,208.7c0,3.2-2.6,5.8-5.8,5.8h-85.2c-3.2,0-5.8-2.6-5.8-5.8v-197c0-3.2,2.6-5.8,5.8-5.8
			h85.2c3.2,0,5.8,2.6,5.8,5.8V208.7z"/>
		<rect id="XMLID_24_" x="98.3" y="19.1" class="st1" width="99.4" height="175.9"/>
		<rect id="XMLID_1_" x="150.8" y="360.7" class="st2" width="62.4" height="29.1"/>
		<path id="XMLID_4_" class="st3" d="M212.2,263.7c-4.9,0-8.8,4-8.8,8.8v-7.1c0-4.9-4-8.8-8.8-8.8c-4.9,0-8.8,4-8.8,8.8v-5.5
			c0-4.9-4-8.8-8.8-8.8c-4.9,0-8.8,4-8.8,8.8V217c0-4.9-4-8.8-8.8-8.8c-4.9,0-8.8,4-8.8,8.8v68.1c0,0-15.3-0.6-14.3,16.4
			c1,17,4.4,39.5,19.1,41.8v17.4h52.5V346c0,0,13.6-2.3,13.6-28.6v-45C221.1,267.6,217.1,263.7,212.2,263.7z"/>
	</g>
	<g id="XMLID_16_">
		<g id="XMLID_17_">
			<path id="XMLID_18_" d="M243.9,0h-135c-9.1,0-16.6,7.4-16.6,16.6V333c0,9.1,7.4,16.6,16.6,16.6h141.9c9.1,0,16.6-7.4,16.6-16.6
				V23.6C267.5,10.7,256.9,0,243.9,0L243.9,0z M155,17h49.9c1.6,0,2.9,1.3,2.9,2.9s-1.3,2.9-2.9,2.9H155c-1.6,0-2.9-1.3-2.9-2.9
				C152.1,18.3,153.4,17,155,17L155,17z M179.9,337.9c-9.1,0-15.6-10-9.4-19.6c0.4-0.5,0.9-1,1.4-1.4c9.6-6.5,19.8,0.1,19.8,9.2
				C191.8,332.5,186.4,337.9,179.9,337.9L179.9,337.9z M251,305.9H108.7V37.4H251V305.9z"/>
		</g>
		<path id="XMLID_36_" class="st4" d="M250.5,304.5c0,5.5-2.2,9.7-4.9,9.7H113.9c-2.7,0-4.9-4.4-4.9-9.7V45.4c0-5.5,2.2-9.7,4.9-9.7
			h131.6c2.7,0,4.9,4.4,4.9,9.7L250.5,304.5L250.5,304.5z"/>
		<path id="XMLID_35_" class="st5" d="M245.6,35.5h-65.5v278.7h65.5c2.7,0,4.9-4.4,4.9-9.7V45.4C250.5,39.9,248.3,35.5,245.6,35.5z"
			/>
		<path id="XMLID_133_" class="st6" d="M109.9,306.4c-3,0-5.3-4.3-5.3-9.5V45c0-5.2,2.3-9.5,5.3-9.5H251c3,0,5.3,4.3,5.3,9.5v252
			c0,5.2-2.3,9.5-5.3,9.5"/>
		<path id="XMLID_132_" class="st7" d="M251,306.4c3,0,5.3-4.3,5.3-9.5V45c0-5.2-2.3-9.5-5.3-9.5h-70.3v270.9"/>
		<g id="XMLID_48_" class="st0">
			<g id="XMLID_58_" class="st8">
				<g id="XMLID_60_">
					<g id="XMLID_67_">
						
							<rect id="XMLID_46_" x="145.5" y="264.6" transform="matrix(0.4367 -0.8996 0.8996 0.4367 -161.49 286.9633)" class="st9" width="5.8" height="15.6"/>
					</g>
					<g id="XMLID_65_">
						<circle id="XMLID_45_" class="st10" cx="141.5" cy="269" r="4"/>
					</g>
					<g id="XMLID_63_">
						
							<rect id="XMLID_44_" x="209.5" y="269.5" transform="matrix(0.8996 -0.4367 0.4367 0.8996 -97.166 122.2568)" class="st9" width="15.6" height="5.8"/>
					</g>
					<g id="XMLID_61_">
						<circle id="XMLID_43_" class="st10" cx="224.2" cy="269" r="4"/>
					</g>
				</g>
				<path id="XMLID_42_" class="st10" d="M152.9,265.7h28.6h2.7h28.6c0,0,2.6,33.4,1.7,35.6c-0.8,2.2-0.9,10.7-5.7,10.7h-24.6h-2.7
					h-24.6c-4.8,0-4.9-8.4-5.7-10.7C150.4,299.1,152.9,265.7,152.9,265.7z"/>
			</g>
			<g id="XMLID_53_" class="st8">
				<g id="XMLID_56_">
					
						<rect id="XMLID_41_" x="174.8" y="246" transform="matrix(0.973 -0.2308 0.2308 0.973 -52.7004 48.2005)" class="st9" width="9.7" height="6.8"/>
				</g>
				<path id="XMLID_40_" class="st10" d="M152.6,264.7c-0.6-4.3,11.4-10.7,27.3-14.4c15.9-3.8,29.5-3.5,30.8,0.6L152.6,264.7z"/>
				
					<ellipse id="XMLID_39_" transform="matrix(0.2307 0.973 -0.973 0.2307 377.2542 15.1962)" class="st10" cx="179" cy="246.2" rx="1.9" ry="8.1"/>
			</g>
			<g id="XMLID_49_" class="st8">
				<circle id="XMLID_38_" class="st1" cx="210.2" cy="259.1" r="1.3"/>
				<path id="XMLID_37_" class="st1" d="M216.7,251.2c0.9,0,1.8,0.6,2.1,1.4c1.2,0.3,2.1,1.3,2.1,2.6c0,1.4-1.2,2.6-2.6,2.6
					s-2.6-1.2-2.6-2.6c-0.6-0.4-1.2-1-1.2-1.9C214.5,252.2,215.5,251.2,216.7,251.2z"/>
				<path id="XMLID_2_" class="st1" d="M212.9,239.6c0-0.1,0-0.3,0-0.4c0-1.8,1.6-3.4,3.4-3.4c1.8,0,3.4,1.6,3.4,3.4
					c0,0.1,0,0.3,0,0.4c1.4,0.3,2.6,1.6,2.6,3c0,1.7-1.4,3.1-3.1,3.1c-0.9,0-1.8-0.4-2.3-1c-0.6,0.9-1.7,1.6-2.9,1.6
					c-1.8,0-3.4-1.6-3.4-3.4C210.6,241.3,211.6,240.1,212.9,239.6z"/>
			</g>
		</g>
		<g id="XMLID_26_">
			<ellipse id="XMLID_34_" class="st10" cx="180.8" cy="220.8" rx="36.3" ry="8.6"/>
			<ellipse id="XMLID_33_" class="st11" cx="180.8" cy="216.4" rx="44.3" ry="10.5"/>
			<ellipse id="XMLID_32_" class="st10" cx="180.8" cy="189.1" rx="42.4" ry="13.1"/>
			<ellipse id="XMLID_31_" class="st12" cx="180.8" cy="197.4" rx="36.6" ry="11"/>
			<path id="XMLID_30_" class="st13" d="M223.2,189.1c0,7.3-19,13.1-42.4,13.1s-42.4-5.8-42.4-13.1c0,0-3,31.2,42.4,31.2
				C226.1,220.3,223.2,189.1,223.2,189.1z"/>
			<ellipse id="XMLID_29_" class="st14" cx="201.5" cy="195.2" rx="8.6" ry="2.2"/>
			<g id="XMLID_27_">
				<path id="XMLID_28_" class="st11" d="M228.7,170c-0.8-1.4-2.5-1.9-3.9-1.2c-16.8,8.6-22.4,23.6-22.6,24.3
					c-0.3,0.5-0.3,1.2-0.1,1.7h5.6c0.8-1.9,6.1-13.9,19.8-20.9C228.8,173.1,229.4,171.4,228.7,170z"/>
			</g>
		</g>
		<g id="XMLID_5_">
			<path id="XMLID_9_" class="st15" d="M158.6,146.4H206V75.6h-47.4V146.4z M194.1,88.5c0-0.1,0.1-0.3,0.3-0.3h2.1
				c0.1,0,0.3,0.1,0.3,0.3v6c0,0.6,0.1,1.2,0.5,1.4c0.4,0.3,0.9,0.5,1.6,0.5s1.2-0.1,1.6-0.5c0.4-0.3,0.5-0.8,0.5-1.4v-6
				c0-0.1,0.1-0.3,0.3-0.3h2.1c0.1,0,0.3,0.1,0.3,0.3V95c0,1.2-0.5,2.1-1.4,2.9c-0.9,0.8-2.1,1.2-3.4,1.2c-1.3,0-2.5-0.4-3.4-1.2
				c-0.9-0.8-1.4-1.7-1.4-2.9v-6.5H194.1z M182.9,88.5c0-0.1,0.1-0.3,0.3-0.3h0.6c0.1,0,0.1,0,0.3,0.1l6,5.8v-5.7
				c0-0.1,0.1-0.3,0.3-0.3h2.1c0.1,0,0.3,0.1,0.3,0.3v10.3c0,0.1-0.1,0.3-0.3,0.3h-0.8c-0.1,0-0.1,0-0.3-0.1l-5.8-5.8v5.6
				c0,0.1-0.1,0.3-0.3,0.3h-2.1c-0.1,0-0.3-0.1-0.3-0.3V88.5z M173.3,88.5c0-0.1,0.1-0.3,0.3-0.3h7.5c0.1,0,0.1,0,0.3,0.1
				c0,0,0.1,0.1,0.1,0.3v1.9c0,0.1-0.1,0.3-0.3,0.3H176v1.6h3.8c0.1,0,0.3,0.1,0.3,0.3v1.9c0,0.1-0.1,0.3-0.3,0.3H176v1.7h5.2
				c0.1,0,0.3,0.1,0.3,0.3v1.9c0,0.1-0.1,0.3-0.3,0.3h-7.5c-0.1,0-0.3-0.1-0.3-0.3V88.5H173.3z M161.1,88.5c0-0.1,0.1-0.3,0.3-0.3
				h0.6c0.1,0,0.1,0,0.3,0.1l4.2,4.8l4.3-4.8c0.1-0.1,0.1-0.1,0.3-0.1h0.6c0.1,0,0.3,0.1,0.3,0.3v10.3c0,0.1-0.1,0.3-0.3,0.3h-2.1
				c-0.1,0-0.3-0.1-0.3-0.3v-5.2l-2.6,2.9c-0.1,0.1-0.4,0.1-0.4,0l-2.6-2.9v5.1c0,0.1-0.1,0.3-0.3,0.3h-2.1c-0.1,0-0.3-0.1-0.3-0.3
				L161.1,88.5L161.1,88.5z M162.3,104.1h40c1.2,0,1.9,0.9,1.9,1.9s-0.9,1.9-1.9,1.9h-40c-1.2,0-1.9-0.9-1.9-1.9
				S161.2,104.1,162.3,104.1z"/>
			<path id="XMLID_6_" class="st10" d="M181.2,43.3c-34.2,0-62,27.5-62,61.5s27.7,61.5,62,61.5c34.2,0,61.9-27.5,61.9-61.5
				C243.1,70.7,215.4,43.3,181.2,43.3z M211,151.3l-56.1-0.1V68.7l39.6-10.4v11.3h16.4L211,151.3z"/>
		</g>
	</g>
	<g id="XMLID_50_">
		<ellipse id="XMLID_131_" class="st11" cx="181.7" cy="264.4" rx="41.5" ry="12.7"/>
		<g id="XMLID_129_">
			<path id="XMLID_130_" class="st10" d="M160.6,265.7c-0.8,0-1.4-0.3-2.1-0.8l-22.7-22.2c-1.2-1.2-1.2-3,0-4.2c1.2-1.2,3-1.2,4.2,0
				l22.7,22.2c1.2,1.2,1.2,3,0,4.2C162,265.5,161.2,265.7,160.6,265.7z"/>
		</g>
		<g id="XMLID_127_">
			<path id="XMLID_128_" class="st10" d="M199.3,265.9c-0.6,0-1.3-0.3-1.9-0.6c-1.2-1-1.4-2.9-0.3-4.2l20.7-24.2
				c1-1.2,2.9-1.4,4.2-0.3c1.2,1,1.4,2.9,0.3,4.2L201.5,265C200.9,265.5,200.1,265.9,199.3,265.9z"/>
		</g>
		<g id="XMLID_52_">
			<path id="XMLID_126_" class="st14" d="M164.6,256.4c-0.5-1.4-1.2-2.6-1.6-4.2c-0.3-0.9-0.5-1.9-1-2.7c-0.8-1-2.6-1.4-3.4,0
				c-0.6,1.3-0.8,2.5-0.9,3.6c-0.1,0.3-0.3,0.6-0.3,1c0,0.5-0.1,0.9-0.1,1.3c-0.5,0.6-0.8,1.4-0.4,2.2c0.4,1,1.9,2.6,2.2,3.5
				c0,0.3,0.1,0.5,0.1,0.9c0.3,1,1,1.4,1.9,1.4c0.6,1.3,3,1.4,3.8-0.3C166,260.4,165.5,259,164.6,256.4z"/>
			<path id="XMLID_125_" class="st14" d="M150.7,263.7c-0.4-0.6-0.4-1.3-0.6-2.1c-0.4-1.3-1.6-3.2-3.2-3c-1.7,0.3-2.9,1.3-3.5,2.9
				c-0.4,0.8-0.4,1.7,0,2.5c-0.4,0.6-0.6,1.4-0.4,2.1c0.5,1.6,1.7,3.2,3.4,3.6c1.8,0.5,3.6-0.4,4.7-1.9
				C151.9,266.5,151.5,265,150.7,263.7z"/>
			<path id="XMLID_124_" class="st14" d="M182.3,255.5c-0.8,0.1-1.4,0.8-1.9,1.6c-0.5-0.3-1-0.3-1.7,0.1c-0.4,0.3-3.6,3.2-2.7,3.5
				c-1.8-0.4-3,0.1-3.6,1.9c-0.6,1.8,0.8,3.4,2.2,4c1.6,0.8,2.7,0.4,3.9-0.4c0.5,0.5,1.2,0.9,2.1,0.9c1.3,0,2.3-1,3.1-1.9
				c1.8-1.8,3.6-4.5,3.5-7.3C186.9,255.5,184.3,255,182.3,255.5z"/>
			<path id="XMLID_123_" class="st14" d="M204.2,259c0-0.8-0.5-1.6-1.3-1.8c-0.4-0.5-1-0.8-1.6-0.8c-1.2,0-1.8,0.9-1.9,1.8
				c-0.8,0.6-1.4,1.6-1.8,2.6c-0.3,0.8-0.3,1.9,0.1,2.7c-0.1,0.1-0.3,0.3-0.5,0.4c-1.7,1.6,0.4,4,2.3,3.1c0.3-0.1,0.5-0.4,0.8-0.5
				c0.3-0.1,0.6-0.3,0.9-0.4c0.3-0.3,0.5-0.6,0.6-1.2c0.4-0.5,0.6-1.2,0.9-1.8c0.1-0.8,0.3-1.6,0.4-2.2c0-0.1,0-0.3,0.1-0.4
				C204,260.1,204.2,259.6,204.2,259z"/>
			<path id="XMLID_122_" class="st14" d="M218.8,260c-1,0.6-1.9,1.3-2.9,1.9c-0.5-0.5-1.2-1-1.9-0.9c-1.3,0.1-2.1,0.8-2.5,2.1
				c-0.1,0.4-0.1,0.9-0.1,1.3c-1.2,0.5-2.2,1.7-2.3,2.9c-0.1,2.7,3.1,5.1,5.7,4c0.4-0.1,0.6-0.5,0.8-0.9c1.6-0.1,3-1.9,4-2.9
				c0.9-0.8,1.6-2.1,1.7-3.2c0-0.4,0-0.8-0.1-1C222.7,261.7,220.7,258.6,218.8,260z"/>
			<path id="XMLID_121_" class="st14" d="M193.3,253.1c-0.6-0.4-1.3-0.3-1.8,0c-1.2-0.6-2.9-0.1-3,1.6c0,1.4,0,2.6,1,3.8
				c0.4,0.4,0.9,0.8,1.4,1.2c0.1,0.1,0.3,0.1,0.4,0.3c-1.2,1.8,1.6,3.5,3.1,2.2c1.4-1.2,2.5-3,2.5-4.8
				C196.8,255,195.1,254.2,193.3,253.1z"/>
			<path id="XMLID_120_" class="st16" d="M183,250.5c-0.1-0.6-0.4-1.3-1-1.7c-1.2-1-3.1-1.2-4.3,0c-1.2,1.2-1,3.1-2.3,4
				c-1,0.9-0.6,2.2,0.3,2.9c-0.8,2.1,2.3,3.8,3.5,1.7c0.4-0.6,0.8-1,1.3-1.6c0.4-0.5,0.8-0.9,1.2-1.4c0.5-0.3,0.9-0.6,1.4-1
				C184.2,252.4,184,251.2,183,250.5z"/>
			<path id="XMLID_119_" class="st16" d="M171.9,256.5c-0.4-0.5-0.8-0.9-1.3-1.2c0-0.3,0-0.4,0-0.5c1.2-2.2-2.2-4.2-3.4-1.9
				c-0.5,1.2-0.6,2.5-0.5,3.8c-0.5,0.3-0.9,0.8-0.9,1.6c0.1,2.9,4.2,6.1,6,2.6C172.4,259.8,172.7,257.5,171.9,256.5z"/>
			<path id="XMLID_118_" class="st16" d="M163.7,270.7c0.1-0.3,0.3-0.6,0.3-1c0-1.3-1.4-4.9-3.2-3.8c-0.3,0.1-0.4,0.3-0.6,0.5
				c-0.1-0.1-0.3-0.3-0.4-0.5c-0.4-0.4-1-0.4-1.4,0c-0.9,0.9-0.8,2.2-0.3,3.2c-0.4,1-0.5,2.3-0.3,3.5c0.3,0.8,1,2.2,1.9,2.5
				c1.2,0.3,1.9-0.4,2.7-1.3C163.3,273.1,164.1,271.8,163.7,270.7C163.7,270.8,163.7,270.8,163.7,270.7z"/>
			<path id="XMLID_117_" class="st16" d="M210.5,259c-0.3-0.5-0.6-0.9-1.2-1.3c-0.3-0.5-0.6-0.8-1.4-0.8c-0.9-0.4-1.9-0.5-2.9-0.3
				c-0.9-0.3-2.3,0.1-3,0.6c-1.2,0.9-1,2.5-0.4,3.6c0.4,0.6,1,1.2,1.7,1.4c0.1,0.3,0.3,0.4,0.5,0.6c0.8,0.5,1.3,0.4,1.7-0.1
				c0.9,0.6,1.9,0.8,2.6-0.3c0.4,0.1,0.8,0.1,1.3,0C210.9,262,211.1,260.1,210.5,259z"/>
			<path id="XMLID_116_" class="st16" d="M203.1,271.2c0-0.1-0.1-0.3-0.3-0.4l0,0c-0.3-1-1-1.4-1.8-1.6c-0.6-0.3-1.3-0.5-1.8-0.5
				c-0.9-0.4-1.8-0.4-2.6,0.3c-1.3,1-0.1,4,0.8,5.1c0.4,0.4,0.8,0.4,1.2,0.3c0,0,0,0.1,0.1,0.1c0.4,0.4,0.8,0.4,1.3,0.3
				c0.4,0.3,0.9,0.4,1.6,0.3c0.5-0.1,0.8-0.5,0.9-0.9C203.2,273.3,203.6,272.2,203.1,271.2z"/>
			<path id="XMLID_115_" class="st16" d="M195.7,264.4c0-0.1-0.1-0.3-0.1-0.4c-0.1-1.3-0.8-2.6-1.9-2.7c-0.6-0.6-1.4-1-2.3-0.9
				c-1.8,0.4-2.1,2.1-1.9,3.8c-0.1,0.4-0.1,0.6,0,1c0,0.1,0.1,0.1,0.1,0.3c0.1,0.4,0.1,0.8,0.3,1c0.5,1.8,2.6,1.6,4,0.9
				c0.4,0.1,0.9,0,1.4-0.3C195.9,266.6,195.9,265.3,195.7,264.4z"/>
			<path id="XMLID_114_" class="st14" d="M206,262.5c0.5-1.4,1.2-2.6,1.6-4.2c0.3-0.9,0.5-1.9,1-2.7c0.8-1,2.6-1.4,3.4,0
				c0.6,1.3,0.8,2.5,0.9,3.6c0.1,0.3,0.3,0.6,0.3,1c0,0.5,0.1,0.9,0.1,1.3c0.5,0.6,0.8,1.4,0.4,2.2c-0.4,1-1.9,2.6-2.2,3.5
				c0,0.3-0.1,0.5-0.1,0.9c-0.3,1-1,1.4-1.9,1.4c-0.6,1.3-3,1.4-3.8-0.3C204.7,266.5,205.3,265.1,206,262.5z"/>
			<path id="XMLID_113_" class="st14" d="M213.5,267.7c1,1.6,2.9,2.5,4.7,1.9c1.7-0.5,3-2.1,3.4-3.6c0.3-0.8,0-1.6-0.4-2.1
				c0.4-0.8,0.3-1.6,0-2.5c-0.6-1.6-1.8-2.6-3.5-2.9s-2.9,1.8-3.2,3c-0.3,0.6-0.3,1.4-0.6,2.1C213.1,265,212.7,266.5,213.5,267.7z"
				/>
			<path id="XMLID_112_" class="st14" d="M160,258.6c0.8,0.1,1.4,0.8,1.9,1.6c0.5-0.3,1-0.3,1.7,0.1c0.4,0.3,3.6,3.2,2.7,3.5
				c1.8-0.4,3,0.1,3.6,1.9c0.6,1.8-0.8,3.4-2.2,4c-1.6,0.8-2.7,0.4-3.9-0.4c-0.5,0.5-1.2,0.9-2.1,0.9c-1.3,0-2.3-1-3.1-1.9
				c-1.8-1.8-3.6-4.5-3.5-7.3C155.4,258.6,158,258.1,160,258.6z"/>
			<path id="XMLID_111_" class="st14" d="M160.2,259c0-0.8,0.5-1.6,1.3-1.8c0.4-0.5,1-0.8,1.6-0.8c1.2,0,1.8,0.9,1.9,1.8
				c0.8,0.6,1.4,1.6,1.8,2.6c0.3,0.8,0.3,1.9-0.1,2.7c0.1,0.1,0.3,0.3,0.5,0.4c1.7,1.6-0.4,4-2.3,3.1c-0.3-0.1-0.5-0.4-0.8-0.5
				c-0.3-0.1-0.6-0.3-0.9-0.4c-0.3-0.3-0.5-0.6-0.6-1.2c-0.4-0.5-0.6-1.2-0.9-1.8c-0.1-0.8-0.3-1.6-0.4-2.2c0-0.1,0-0.3-0.1-0.4
				C160.6,260.1,160.2,259.6,160.2,259z"/>
			<path id="XMLID_110_" class="st14" d="M143.5,263.1c-0.1,0.3-0.1,0.6,0,1c0.1,1.2,0.8,2.3,1.7,3.2s2.5,2.7,4,2.9
				c0.1,0.4,0.4,0.8,0.8,0.9c2.6,1,5.8-1.2,5.7-4c-0.1-1.2-1.2-2.3-2.3-2.9c0-0.4,0-0.9-0.1-1.3c-0.4-1.3-1.2-1.9-2.5-2.1
				c-0.8-0.1-1.4,0.4-1.9,0.9c-0.9-0.6-1.9-1.3-2.9-1.9C143.7,258.6,141.9,261.7,143.5,263.1z"/>
			<path id="XMLID_109_" class="st14" d="M171.1,253.1c0.6-0.4,1.3-0.3,1.8,0c1.2-0.6,2.9-0.1,3,1.6c0,1.4,0,2.6-1,3.8
				c-0.4,0.4-0.9,0.8-1.4,1.2c-0.1,0.1-0.3,0.1-0.4,0.3c1.2,1.8-1.6,3.5-3.1,2.2c-1.4-1.2-2.5-3-2.5-4.8
				C167.6,255,169.4,254.2,171.1,253.1z"/>
			<path id="XMLID_108_" class="st16" d="M184.9,263c0.1-0.6,0.4-1.3,1-1.7c1.2-1,3.1-1.2,4.3,0c1.2,1.2,1,3.1,2.3,4
				c1,0.9,0.6,2.2-0.3,2.9c0.8,2.1-2.3,3.8-3.5,1.7c-0.4-0.6-0.8-1-1.3-1.6c-0.4-0.5-0.8-1-1.2-1.4c-0.5-0.3-0.9-0.6-1.4-1
				C183.8,264.8,184.1,263.7,184.9,263z"/>
			<path id="XMLID_107_" class="st16" d="M192.7,260.8c1.9,3.4,6,0.3,6-2.6c0-0.8-0.4-1.3-0.9-1.6c0.3-1.3,0.1-2.6-0.5-3.8
				c-1.2-2.2-4.5-0.3-3.4,1.9c0,0.1,0,0.4,0,0.5c-0.5,0.3-0.9,0.6-1.3,1.2C191.9,257.5,192.1,259.8,192.7,260.8z"/>
			<path id="XMLID_106_" class="st16" d="M182.5,269.4c-0.4,1.2,0.4,2.5,1.2,3.2c0.8,0.8,1.6,1.6,2.7,1.3c0.9-0.3,1.7-1.7,1.9-2.5
				c0.4-1.2,0.3-2.3-0.3-3.5c0.5-1.2,0.5-2.5-0.3-3.2c-0.4-0.4-1-0.4-1.4,0c-0.1,0.1-0.3,0.3-0.4,0.5c-0.3-0.1-0.4-0.4-0.6-0.5
				c-1.8-1.2-3.4,2.5-3.2,3.8C182.3,268.7,182.4,269.1,182.5,269.4L182.5,269.4z"/>
			<path id="XMLID_105_" class="st16" d="M174.2,269c0.3-0.5,0.6-0.9,1.2-1.3c0.3-0.5,0.6-0.8,1.4-0.8c0.9-0.4,1.9-0.5,2.9-0.3
				c0.9-0.3,2.3,0.1,3,0.6c1.2,0.9,1,2.5,0.4,3.6c-0.4,0.6-1,1.2-1.7,1.4c-0.1,0.3-0.3,0.4-0.5,0.6c-0.8,0.5-1.3,0.4-1.7-0.1
				c-0.9,0.6-1.9,0.8-2.6-0.3c-0.4,0.1-0.8,0.1-1.3,0C173.8,272.1,173.6,270.3,174.2,269z"/>
			<path id="XMLID_104_" class="st16" d="M161.5,271.2c0-0.1,0.1-0.3,0.3-0.4l0,0c0.1-1,1-1.4,1.8-1.6c0.6-0.3,1.3-0.5,1.9-0.5
				c0.9-0.4,1.8-0.4,2.6,0.3c1.3,1,0.1,4-0.8,5.1c-0.4,0.4-0.8,0.4-1.2,0.3c0,0,0,0.1-0.1,0.1c-0.4,0.4-0.8,0.4-1.3,0.3
				c-0.4,0.3-0.9,0.4-1.7,0.3c-0.5-0.1-0.8-0.5-0.9-0.9C161.3,273.3,161,272.2,161.5,271.2z"/>
			<path id="XMLID_103_" class="st16" d="M168.9,264.4c0-0.1,0.1-0.3,0.1-0.4c0.1-1.3,0.8-2.6,1.9-2.7c0.6-0.6,1.4-1,2.3-0.9
				c1.8,0.4,2.1,2.1,1.9,3.8c0.1,0.4,0.1,0.6,0,1c0,0.1-0.1,0.1-0.1,0.3c-0.1,0.4-0.1,0.8-0.3,1c-0.5,1.8-2.6,1.6-4,0.9
				c-0.4,0.1-0.9,0-1.4-0.3C168.6,266.6,168.6,265.3,168.9,264.4z"/>
			<path id="XMLID_102_" class="st14" d="M198.8,260.9c0.5-1.4,1.2-2.6,1.6-4.2c0.3-0.9,0.5-1.9,1-2.7c0.8-1,2.6-1.4,3.4,0
				c0.6,1.3,0.8,2.5,0.9,3.6c0.1,0.3,0.3,0.6,0.3,1c0,0.5,0.1,0.9,0.1,1.3c0.5,0.6,0.8,1.4,0.4,2.2c-0.4,1-1.9,2.6-2.2,3.5
				c0,0.3-0.1,0.5-0.1,0.9c-0.3,1-1,1.4-1.9,1.4c-0.6,1.3-3,1.4-3.8-0.3C197.5,265,198,263.5,198.8,260.9z"/>
			<path id="XMLID_101_" class="st14" d="M212.4,272.4c1,1.6,2.9,2.5,4.7,1.9c1.7-0.5,3-2.1,3.4-3.6c0.3-0.6,0-1.6-0.4-2.1
				c0.4-0.8,0.3-1.6,0-2.5c-0.6-1.6-1.8-2.6-3.5-2.9c-1.7-0.3-2.9,1.8-3.2,3c-0.3,0.6-0.3,1.4-0.6,2.1
				C212,269.5,211.6,271.1,212.4,272.4z"/>
			<path id="XMLID_100_" class="st14" d="M181.2,260c0.8,0.1,1.4,0.8,1.9,1.6c0.5-0.3,1-0.3,1.7,0.1c0.4,0.3,3.6,3.2,2.7,3.5
				c1.8-0.4,3,0.1,3.6,1.9s-0.8,3.4-2.2,4c-1.6,0.8-2.7,0.4-3.9-0.4c-0.5,0.5-1.2,0.9-2.1,0.9c-1.3,0-2.3-1-3.1-1.9
				c-1.8-1.8-3.6-4.5-3.5-7.3C176.6,260,179.2,259.5,181.2,260z"/>
			<path id="XMLID_99_" class="st14" d="M159.1,263.5c0-0.8,0.5-1.6,1.3-1.8c0.4-0.5,1-0.8,1.6-0.8c1.2,0,1.8,0.9,1.9,1.8
				c0.8,0.6,1.4,1.6,1.8,2.6c0.3,0.8,0.3,1.9-0.1,2.7c0.1,0.1,0.3,0.3,0.5,0.4c1.7,1.6-0.4,4-2.3,3.1c-0.3-0.1-0.5-0.4-0.8-0.5
				c-0.3-0.1-0.6-0.3-0.9-0.4c-0.3-0.3-0.5-0.6-0.6-1.2c-0.4-0.5-0.6-1.2-0.9-1.8c-0.1-0.8-0.3-1.6-0.4-2.2c0-0.1,0-0.3-0.1-0.4
				C159.5,264.7,159.1,264.3,159.1,263.5z"/>
			<path id="XMLID_98_" class="st14" d="M142.4,267.7c-0.1,0.3-0.1,0.6,0,1c0.1,1.2,0.8,2.3,1.7,3.2c1,0.9,2.5,2.7,4,2.9
				c0.1,0.4,0.4,0.8,0.8,0.9c2.6,1,5.8-1.2,5.7-4c-0.1-1.2-1.2-2.3-2.3-2.9c0-0.4,0-0.9-0.1-1.3c-0.4-1.3-1.2-1.9-2.5-2.1
				c-0.8-0.1-1.4,0.4-1.9,0.9c-0.9-0.6-1.9-1.3-2.9-1.9C142.6,263.3,140.8,266.3,142.4,267.7z"/>
			<path id="XMLID_97_" class="st14" d="M170.1,257.8c0.6-0.4,1.3-0.3,1.8,0c1.2-0.6,2.9-0.1,3,1.6c0,1.4,0,2.7-0.9,3.8
				c-0.4,0.4-0.9,0.8-1.4,1.2c-0.1,0.1-0.3,0.1-0.4,0.3c1.2,1.8-1.6,3.5-3.1,2.2c-1.4-1.2-2.5-3-2.5-4.8
				C166.5,259.6,168.4,258.7,170.1,257.8z"/>
			<path id="XMLID_96_" class="st16" d="M180.3,255.1c0.1-0.6,0.4-1.3,1-1.7c1.2-1,3.1-1.2,4.3,0c1.2,1.2,1,3.1,2.3,4
				c1,0.9,0.6,2.2-0.3,2.9c0.8,2.1-2.3,3.8-3.5,1.7c-0.4-0.6-0.8-1-1.3-1.6c-0.4-0.5-0.8-1-1.2-1.4c-0.5-0.3-0.9-0.6-1.4-1
				C179.3,257,179.5,255.9,180.3,255.1z"/>
			<path id="XMLID_95_" class="st16" d="M191.6,265.3c1.9,3.4,6,0.3,6-2.6c0-0.8-0.4-1.3-0.9-1.6c0.3-1.3,0.1-2.6-0.5-3.8
				c-1.2-2.2-4.5-0.3-3.4,1.9c0,0.1,0,0.4,0,0.5c-0.5,0.3-0.9,0.6-1.3,1.2C190.8,262.1,191,264.3,191.6,265.3z"/>
			<path id="XMLID_94_" class="st16" d="M199.7,275.4c-0.4,1.2,0.4,2.5,1.2,3.2c0.8,0.8,1.6,1.6,2.7,1.3c0.9-0.3,1.7-1.7,1.9-2.5
				c0.4-1.2,0.3-2.3-0.3-3.5c0.5-1.2,0.5-2.5-0.3-3.2c-0.4-0.4-1-0.4-1.4,0c-0.1,0.1-0.3,0.3-0.4,0.5c-0.3-0.1-0.4-0.4-0.6-0.5
				c-1.8-1.2-3.4,2.5-3.2,3.8C199.4,274.7,199.6,275,199.7,275.4L199.7,275.4z"/>
			<path id="XMLID_93_" class="st16" d="M153,263.5c0.3-0.5,0.6-0.9,1.2-1.3c0.3-0.5,0.6-0.8,1.4-0.8c0.9-0.4,1.9-0.5,2.9-0.3
				c0.9-0.3,2.3,0.1,3,0.6c1.2,0.9,1,2.5,0.4,3.6c-0.4,0.6-1,1.2-1.7,1.4c-0.1,0.3-0.3,0.4-0.5,0.6c-0.8,0.5-1.3,0.4-1.7-0.1
				c-0.9,0.6-1.9,0.8-2.6-0.3c-0.4,0.1-0.8,0.1-1.3,0C152.6,266.5,152.4,264.7,153,263.5z"/>
			<path id="XMLID_92_" class="st16" d="M160.4,275.7c0-0.1,0.1-0.3,0.3-0.4l0,0c0.3-0.9,1-1.4,1.8-1.6c0.6-0.3,1.3-0.5,1.8-0.5
				c0.9-0.4,1.8-0.4,2.6,0.3c1.3,1,0.1,4-0.8,5.1c-0.4,0.4-0.8,0.4-1.2,0.3c0,0,0,0.1-0.1,0.1c-0.4,0.4-0.8,0.4-1.3,0.3
				c-0.4,0.3-0.9,0.4-1.6,0.3c-0.5-0.1-0.8-0.5-0.9-0.9C160.3,277.8,159.9,276.8,160.4,275.7z"/>
			<path id="XMLID_91_" class="st16" d="M167.8,269.1c0-0.1,0.1-0.3,0.1-0.4c0.1-1.3,0.8-2.6,1.9-2.7c0.6-0.6,1.4-1,2.3-0.9
				c1.8,0.4,2.1,2.1,1.9,3.8c0.1,0.4,0.1,0.6,0,1c0,0.1-0.1,0.1-0.1,0.3c-0.1,0.4-0.1,0.8-0.3,1c-0.5,1.8-2.6,1.6-4,0.9
				c-0.4,0.1-0.9,0-1.4-0.3C167.6,271.2,167.6,269.9,167.8,269.1z"/>
			<path id="XMLID_90_" class="st14" d="M157.3,267c-0.5-1.4-1.2-2.6-1.6-4.2c-0.3-0.9-0.5-1.9-1-2.7c-0.8-1-2.6-1.4-3.4,0
				c-0.6,1.3-0.8,2.5-0.9,3.6c-0.1,0.3-0.3,0.6-0.3,1c0,0.5-0.1,0.9-0.1,1.3c-0.5,0.6-0.8,1.4-0.4,2.2c0.4,1,1.9,2.6,2.2,3.5
				c0,0.3,0.1,0.5,0.1,0.9c0.3,1,1,1.4,1.9,1.4c0.6,1.3,3,1.4,3.8-0.3C158.7,271.1,158.2,269.6,157.3,267z"/>
			<path id="XMLID_89_" class="st14" d="M149.7,268.3c-0.3-0.6-0.4-1.3-0.6-2.1c-0.4-1.3-1.6-3.2-3.2-3c-1.7,0.3-2.9,1.3-3.5,2.9
				c-0.4,0.8-0.4,1.6,0,2.5c-0.4,0.6-0.6,1.4-0.4,2.1c0.5,1.6,1.7,3.2,3.4,3.6c1.8,0.5,3.6-0.4,4.7-1.9
				C150.8,271.1,150.4,269.5,149.7,268.3z"/>
			<path id="XMLID_88_" class="st14" d="M206.8,263.5c-0.8,0.1-1.4,0.8-1.9,1.6c-0.5-0.3-1-0.3-1.7,0.1c-0.4,0.3-3.6,3.2-2.7,3.5
				c-1.8-0.4-3,0.1-3.6,1.9c-0.6,1.8,0.8,3.4,2.2,4c1.6,0.8,2.7,0.4,3.9-0.4c0.5,0.5,1.2,0.9,2.1,0.9c1.3,0,2.3-1,3.1-1.9
				c1.8-1.8,3.6-4.5,3.5-7.3C211.5,263.7,208.9,263.1,206.8,263.5z"/>
			<path id="XMLID_87_" class="st14" d="M203.2,263.5c0-0.8-0.5-1.6-1.3-1.8c-0.4-0.5-1-0.8-1.6-0.8c-1.2,0-1.8,0.9-1.9,1.8
				c-0.8,0.6-1.4,1.6-1.8,2.6c-0.3,0.8-0.3,1.9,0.1,2.7c-0.1,0.1-0.3,0.3-0.5,0.4c-1.7,1.6,0.4,4,2.3,3.1c0.3-0.1,0.5-0.4,0.8-0.5
				c0.3-0.1,0.6-0.3,0.9-0.4c0.3-0.3,0.5-0.6,0.6-1.2c0.4-0.5,0.6-1.2,0.9-1.8c0.1-0.8,0.3-1.6,0.4-2.2c0-0.1,0-0.3,0.1-0.4
				C202.9,264.7,203.2,264.3,203.2,263.5z"/>
			<path id="XMLID_86_" class="st14" d="M196.8,270.5c0-0.8-0.5-1.6-1.3-1.8c-0.4-0.5-1-0.8-1.6-0.8c-1.2,0-1.8,0.9-1.9,1.8
				c-0.8,0.6-1.4,1.6-1.8,2.6c-0.3,0.8-0.3,1.9,0.1,2.7c-0.1,0.1-0.3,0.3-0.5,0.4c-1.7,1.6,0.4,4,2.3,3.1c0.3-0.1,0.5-0.4,0.8-0.5
				c0.3-0.1,0.6-0.3,0.9-0.4c0.3-0.3,0.5-0.6,0.6-1.2c0.4-0.5,0.6-1.2,0.9-1.8c0.1-0.8,0.3-1.6,0.4-2.2c0-0.1,0-0.3,0.1-0.4
				C196.4,271.7,196.8,271.2,196.8,270.5z"/>
			<path id="XMLID_85_" class="st14" d="M217.7,264.6c-1,0.6-1.9,1.3-2.9,1.9c-0.5-0.5-1.2-1-1.9-0.9c-1.3,0.1-2.1,0.8-2.5,2.1
				c-0.1,0.4-0.1,0.9-0.1,1.3c-1.2,0.5-2.2,1.7-2.3,2.9c-0.1,2.7,3.1,5.1,5.7,4c0.4-0.1,0.6-0.5,0.8-0.9c1.6-0.1,3-1.9,4-2.9
				c0.9-0.8,1.6-2.1,1.7-3.2c0-0.4,0-0.8-0.1-1C221.6,266.3,219.7,263.3,217.7,264.6z"/>
			<path id="XMLID_84_" class="st14" d="M192.3,257.8c-0.6-0.4-1.3-0.3-1.8,0c-1.2-0.6-2.9-0.1-3,1.6c0,1.4,0,2.7,1,3.8
				c0.4,0.4,0.9,0.8,1.4,1.2c0.1,0.1,0.3,0.1,0.4,0.3c-1.2,1.8,1.6,3.5,3.1,2.2c1.4-1.2,2.5-3,2.5-4.8
				C195.8,259.6,194.1,258.7,192.3,257.8z"/>
			<path id="XMLID_83_" class="st16" d="M178.1,269.9c-0.1-0.6-0.4-1.3-1-1.7c-1.2-1-3.1-1.2-4.3,0c-1.2,1.2-1,3.1-2.3,4
				c-1,0.9-0.6,2.2,0.3,2.9c-0.8,2.1,2.3,3.8,3.5,1.7c0.4-0.6,0.8-1,1.3-1.6c0.4-0.5,0.8-1,1.2-1.4c0.5-0.3,0.9-0.6,1.4-1.2
				C179.3,271.7,178.9,270.5,178.1,269.9z"/>
			<path id="XMLID_82_" class="st16" d="M170.8,261.1c-0.4-0.5-0.8-0.9-1.3-1.2c0-0.3,0-0.4,0-0.5c1.2-2.2-2.2-4.2-3.4-1.9
				c-0.5,1.2-0.6,2.5-0.5,3.8c-0.5,0.3-0.9,0.8-0.9,1.6c0.1,2.9,4.2,6.1,6,2.6C171.4,264.3,171.6,262.1,170.8,261.1z"/>
			<path id="XMLID_81_" class="st16" d="M180.8,273.9c0.1-0.3,0.3-0.6,0.3-1c0-1.3-1.4-4.9-3.2-3.8c-0.3,0.1-0.4,0.3-0.6,0.5
				c-0.1-0.1-0.3-0.3-0.4-0.5c-0.4-0.4-1-0.4-1.4,0c-0.9,0.9-0.8,2.2-0.3,3.2c-0.4,1-0.5,2.3-0.3,3.5c0.3,0.8,1,2.2,1.9,2.5
				c1.2,0.3,1.9-0.4,2.7-1.3C180.4,276.4,181.2,275.1,180.8,273.9L180.8,273.9z"/>
			<path id="XMLID_80_" class="st16" d="M189.3,273.7c-0.3-0.5-0.6-0.9-1.2-1.3c-0.3-0.5-0.6-0.8-1.4-0.8c-0.9-0.4-1.9-0.5-2.9-0.3
				c-0.9-0.3-2.3,0.1-3,0.6c-1.2,0.9-1,2.5-0.4,3.6c0.4,0.6,1,1.2,1.7,1.4c0.1,0.3,0.3,0.4,0.5,0.5c0.8,0.5,1.3,0.4,1.7-0.1
				c0.9,0.6,1.9,0.8,2.6-0.3c0.4,0.1,0.8,0.1,1.3,0C189.7,276.7,189.9,274.8,189.3,273.7z"/>
			<path id="XMLID_79_" class="st16" d="M202,275.7c0-0.1-0.1-0.3-0.3-0.4l0,0c-0.1-0.9-1-1.4-1.8-1.6c-0.6-0.3-1.3-0.5-1.9-0.5
				c-0.8-0.4-1.8-0.4-2.6,0.3c-1.3,1-0.1,4,0.8,5.1c0.4,0.4,0.8,0.4,1.2,0.3v0.1c0.4,0.4,0.8,0.4,1.3,0.3c0.4,0.3,0.9,0.4,1.7,0.3
				c0.5-0.1,0.8-0.5,0.9-0.9C202.2,277.8,202.4,276.8,202,275.7z"/>
			<path id="XMLID_78_" class="st16" d="M194.6,269.1c0-0.1-0.1-0.3-0.1-0.4c-0.1-1.3-0.8-2.6-1.9-2.7c-0.6-0.6-1.4-1-2.3-0.9
				c-1.8,0.4-2.1,2.1-1.9,3.8c-0.1,0.4-0.1,0.6,0,1c0,0.1,0.1,0.1,0.1,0.3c0.1,0.4,0.1,0.8,0.3,1c0.5,1.8,2.6,1.6,4,0.9
				c0.4,0.1,0.9,0,1.4-0.3C194.9,271.2,194.9,269.9,194.6,269.1z"/>
			<g id="XMLID_74_">
				<path id="XMLID_75_" class="st1" d="M184.9,281.8c-3.9,0-7.1-3.1-7.1-6.8c0-3.8,3.2-6.8,7.1-6.8s7.1,3.1,7.1,6.8
					C192,278.7,188.9,281.8,184.9,281.8z M184.9,270.2c-2.9,0-5.2,2.2-5.2,4.8c0,2.7,2.3,4.8,5.2,4.8c2.9,0,5.2-2.2,5.2-4.8
					C190.1,272.4,187.7,270.2,184.9,270.2z"/>
			</g>
			<ellipse id="XMLID_73_" class="st10" cx="195.8" cy="266.9" rx="3.9" ry="2.5"/>
			<ellipse id="XMLID_72_" class="st10" cx="169.1" cy="273.4" rx="3.9" ry="2.5"/>
			<ellipse id="XMLID_71_" class="st10" cx="151.5" cy="267.8" rx="3.9" ry="2.5"/>
			<ellipse id="XMLID_70_" class="st10" cx="174.5" cy="259.6" rx="3.9" ry="2.5"/>
			<path id="XMLID_69_" class="st10" d="M191,261.6c-1,0.9-3,0.3-4.3-1.4c-1.3-1.7-1.6-3.6-0.5-4.5c1-0.9,3-0.3,4.4,1.4
				C191.8,258.7,192,260.7,191,261.6z"/>
			<g id="XMLID_62_">
				<path id="XMLID_64_" class="st1" d="M154.5,275.6c-1,0-1.9-0.3-2.7-0.8c-2.6-1.7-3.1-5.6-1-8.7c1.3-2.1,3.5-3.4,5.7-3.4
					c1,0,1.9,0.3,2.7,0.8c1.2,0.8,1.9,1.9,2.2,3.4c0.4,1.8,0,3.8-1.2,5.3C158.7,274.3,156.7,275.6,154.5,275.6z M156.3,264.4
					c-1.6,0-3.2,0.9-4.3,2.6c-1.6,2.3-1.2,5.2,0.6,6.4s4.5,0.3,6-2.1c0.8-1.3,1.2-2.7,0.9-4c-0.3-1-0.8-1.8-1.4-2.2
					C157.6,264.6,156.9,264.4,156.3,264.4z"/>
			</g>
			<g id="XMLID_54_">
				<path id="XMLID_55_" class="st1" d="M205,274.8c-1,0-1.9-0.3-2.7-0.8c-1.3-0.8-2.1-2.2-2.3-3.9c-0.1-1.6,0.3-3.4,1.2-4.8
					c1.3-2.1,3.5-3.4,5.7-3.4c1,0,1.9,0.3,2.7,0.8c1.3,0.8,2.1,2.2,2.3,3.9c0.1,1.6-0.3,3.4-1.2,4.8
					C209.3,273.5,207.2,274.8,205,274.8z M206.8,263.7c-1.6,0-3.2,0.9-4.2,2.6c-0.8,1.2-1,2.5-0.9,3.6c0.1,1.2,0.6,2.1,1.6,2.7
					c1.8,1.2,4.5,0.3,6.1-2.1c0.8-1.2,1-2.5,0.9-3.6c-0.1-1.2-0.6-2.1-1.6-2.7C208.1,263.9,207.5,263.7,206.8,263.7z"/>
			</g>
		</g>
		<path id="XMLID_51_" class="st13" d="M223.2,263.5c0,7-18.6,12.7-41.5,12.7s-41.5-5.7-41.5-12.7c0,0-4.3,30.4,41.5,30.4
			C227.5,294.1,223.2,263.5,223.2,263.5z"/>
	</g>
</g>
</svg>
